<svg xmlns="http://www.w3.org/2000/svg" width="512" height="512" viewBox="0 0 512 512" aria-hidden="true" focusable="false">
  <rect width="512" height="512" fill="#e4be8b"/>
  <path fill="#a2543c" d="M0 0 C0.35 -0 0.35 -0 2.12 -0 C4.44 -0 6.77 0 9.09 0.01 C9.9 0.01 10.7 0.02 11.53 0.02 C28.37 0.05 45.2 0.41 62.03 0.87 C66.17 0.98 70.32 1.09 74.46 1.2 C82.51 1.41 90.56 1.62 98.62 1.84 C108.04 2.09 117.46 2.34 126.88 2.58 C143.71 3.02 160.54 3.47 177.37 3.92 C193.63 4.35 209.88 4.78 226.14 5.21 C226.64 5.22 227.14 5.23 227.66 5.25 C230.18 5.31 232.71 5.38 235.24 5.44 C235.49 5.45 235.49 5.45 236.75 5.48 C237.76 5.51 238.76 5.54 239.77 5.56 C255.88 5.99 271.99 6.41 288.1 6.84 C292.78 6.96 297.47 7.08 302.15 7.21 C311.98 7.47 321.82 7.73 331.65 7.99 C335.7 8.1 339.76 8.2 343.82 8.31 C344.58 8.33 345.33 8.35 346.12 8.37 C347.61 8.41 349.11 8.45 350.61 8.49 C354.16 8.58 357.71 8.68 361.26 8.79 C362.62 8.83 363.97 8.88 365.32 8.92 C365.97 8.94 366.63 8.96 367.3 8.98 C371.22 9.09 375.14 9.15 379.07 9.15 C381.56 9.16 384.05 9.2 386.54 9.23 C387.69 9.24 388.84 9.24 389.98 9.22 C395.9 9.15 400.11 9.51 404.77 13.55 C405.92 14.72 407.06 15.91 408.17 17.13 C408.93 17.85 409.69 18.57 410.45 19.28 C414.17 23.01 417.68 26.84 421.1 30.84 C424.25 34.41 427.73 37.7 431.17 41 C431.67 41.49 432.17 41.98 432.69 42.49 C432.92 42.71 432.92 42.71 434.06 43.81 C436.35 46.54 436.29 49.33 436.29 52.79 C436.3 53.27 436.3 53.27 436.3 55.72 C436.29 56.8 436.29 57.89 436.28 58.97 C436.28 59.25 436.28 59.25 436.28 60.68 C436.23 76.78 435.81 92.88 435.43 108.98 C435.34 112.64 435.25 116.29 435.17 119.95 C434.37 153.98 433.52 188 432.66 222.03 C432.53 227.07 432.41 232.11 432.28 237.15 C432.27 237.7 432.25 238.26 432.24 238.83 C431.78 256.94 431.35 275.04 430.93 293.15 C430.5 311.81 430.04 330.48 429.56 349.15 C429.49 351.78 429.42 354.42 429.35 357.05 C429.34 357.57 429.33 358.09 429.31 358.63 C429.1 366.96 428.91 375.29 428.73 383.62 C428.54 391.98 428.33 400.34 428.1 408.7 C427.98 413.22 427.86 417.75 427.78 422.27 C427.7 426.42 427.59 430.56 427.46 434.7 C427.41 436.2 427.38 437.7 427.36 439.2 C427.19 451.76 427.19 451.76 422.72 456.94 C421.57 458.03 420.39 459.1 419.17 460.13 C418.47 460.83 417.78 461.53 417.06 462.25 C416.78 462.51 416.78 462.51 415.34 463.84 C414.69 464.44 414.04 465.04 413.37 465.66 C413.04 465.96 413.04 465.96 411.36 467.5 C406.23 472.24 401.15 477 396.35 482.07 C392.07 486.49 389.27 488.29 383.1 488.45 C380.97 488.45 378.84 488.41 376.71 488.36 C375.52 488.35 374.32 488.34 373.13 488.33 C369.84 488.29 366.55 488.23 363.25 488.17 C361.16 488.13 359.07 488.09 356.97 488.05 C346.69 487.87 336.4 487.63 326.11 487.38 C322.45 487.3 318.78 487.21 315.12 487.12 C281.01 486.33 246.9 485.48 212.8 484.62 C207.75 484.49 202.69 484.37 197.64 484.24 C197.09 484.22 196.53 484.21 195.95 484.2 C177.81 483.74 159.66 483.31 141.52 482.89 C122.8 482.45 104.09 482 85.38 481.52 C82.74 481.45 80.09 481.38 77.45 481.31 C76.93 481.3 76.41 481.29 75.88 481.27 C67.53 481.06 59.18 480.87 50.83 480.68 C42.45 480.5 34.07 480.29 25.69 480.06 C21.16 479.93 16.62 479.82 12.08 479.73 C7.93 479.66 3.78 479.55 -0.37 479.41 C-1.87 479.37 -3.37 479.34 -4.87 479.32 C-17.47 479.15 -17.47 479.15 -22.64 474.68 C-23.73 473.53 -24.8 472.34 -25.83 471.13 C-26.58 470.4 -27.35 469.68 -28.12 468.97 C-31.22 465.86 -34.22 462.72 -37.08 459.38 C-40.77 455.07 -44.78 451.12 -48.83 447.16 C-49.08 446.92 -49.08 446.92 -50.35 445.67 C-50.81 445.22 -51.26 444.78 -51.73 444.33 C-54.41 441.4 -53.97 438.24 -53.96 434.51 C-53.96 433.83 -53.96 433.15 -53.96 432.46 C-53.96 430.2 -53.95 427.95 -53.94 425.7 C-53.94 424.92 -53.94 424.13 -53.94 423.33 C-53.9 406.67 -53.54 390.03 -53.09 373.38 C-52.97 369.24 -52.87 365.09 -52.76 360.95 C-52.55 352.89 -52.34 344.84 -52.12 336.78 C-51.87 327.36 -51.62 317.93 -51.38 308.5 C-50.93 291.67 -50.49 274.83 -50.04 258 C-49.61 241.74 -49.18 225.47 -48.75 209.21 C-48.74 208.71 -48.73 208.21 -48.71 207.69 C-48.66 205.67 -48.61 203.65 -48.55 201.62 C-48.53 200.61 -48.5 199.61 -48.47 198.6 C-48.45 197.59 -48.42 196.58 -48.39 195.58 C-47.97 179.46 -47.55 163.35 -47.12 147.24 C-46.97 141.62 -46.82 136 -46.68 130.39 C-46.44 121.48 -46.21 112.57 -45.97 103.67 C-45.86 99.61 -45.75 95.55 -45.65 91.49 C-45.15 72.7 -44.58 53.91 -43.83 35.13 C-43.17 35.13 -42.51 35.13 -41.83 35.13 C-41.83 34.14 -41.83 33.15 -41.83 32.13 C-40.43 30.65 -40.43 30.65 -38.46 29.06 C-35.07 26.23 -31.92 23.28 -28.83 20.13 C-25.26 16.5 -21.59 13.1 -17.72 9.79 C-15.11 7.49 -12.69 5.01 -10.28 2.51 C-7.19 -0.44 -4.02 -0.02 0 0 Z M-11.83 15.13 C-13.01 16.2 -14.22 17.24 -15.46 18.25 C-20 22.15 -24.17 26.41 -28.35 30.68 C-28.89 31.23 -29.42 31.77 -29.98 32.33 C-30.45 32.82 -30.93 33.31 -31.42 33.82 C-32.83 35.13 -32.83 35.13 -34.39 35.91 C-35.83 37.13 -35.83 37.13 -36.26 39.2 C-36.27 39.63 -36.27 39.63 -36.32 41.82 C-36.34 42.3 -36.36 42.78 -36.38 43.28 C-36.43 44.91 -36.46 46.53 -36.49 48.15 C-36.53 49.32 -36.56 50.49 -36.6 51.65 C-36.7 54.86 -36.77 58.06 -36.85 61.26 C-36.93 64.69 -37.03 68.13 -37.13 71.57 C-37.3 77.43 -37.45 83.29 -37.6 89.15 C-37.8 97.12 -38.02 105.08 -38.25 113.04 C-38.74 130.26 -39.2 147.49 -39.65 164.71 C-39.78 169.62 -39.91 174.52 -40.04 179.43 C-40.4 193.14 -40.76 206.86 -41.13 220.57 C-41.15 221.44 -41.17 222.3 -41.19 223.19 C-41.24 224.94 -41.29 226.68 -41.33 228.43 C-41.35 229.3 -41.38 230.17 -41.4 231.06 C-41.42 231.93 -41.45 232.8 -41.47 233.69 C-41.84 247.83 -42.22 261.96 -42.59 276.1 C-42.99 290.79 -43.38 305.48 -43.76 320.16 C-43.98 328.34 -44.19 336.52 -44.41 344.7 C-44.84 360.59 -45.25 376.49 -45.59 392.38 C-45.62 393.62 -45.65 394.87 -45.67 396.11 C-45.69 396.71 -45.7 397.31 -45.71 397.93 C-45.8 401.74 -45.9 405.56 -46.01 409.38 C-46.13 413.78 -46.23 418.17 -46.3 422.57 C-46.33 424.04 -46.37 425.51 -46.42 426.99 C-46.7 434.94 -46.44 439.95 -41.07 446.18 C-38.71 448.4 -36.21 450.24 -33.5 451.99 C-31.21 453.55 -29.74 455.27 -28.02 457.44 C-27.77 457.72 -27.77 457.72 -26.52 459.12 C-24.83 461.13 -24.83 461.13 -23.41 463.4 C-20.66 467.11 -18.15 469.56 -13.56 470.68 C-6.8 471.6 0.03 471.6 6.84 471.65 C10.08 471.68 13.31 471.77 16.55 471.85 C22.28 471.99 28.01 472.09 33.75 472.17 C43.07 472.31 52.39 472.51 61.71 472.71 C65.04 472.79 68.36 472.86 71.69 472.93 C72.11 472.94 72.11 472.94 74.25 472.99 C80.49 473.12 86.72 473.25 92.96 473.37 C123.59 473.97 154.22 474.76 184.84 475.59 C188.73 475.69 192.61 475.8 196.49 475.9 C206.87 476.18 217.25 476.46 227.62 476.74 C251.69 477.4 275.76 478.05 299.82 478.68 C305.58 478.83 311.35 478.98 317.11 479.14 C319.3 479.2 321.48 479.25 323.67 479.31 C324.2 479.33 324.73 479.34 325.28 479.36 C333.67 479.58 342.06 479.78 350.45 479.95 C355.33 480.05 360.21 480.19 365.09 480.38 C367.81 480.48 370.52 480.56 373.24 480.62 C374.43 480.65 375.62 480.7 376.82 480.76 C383 481.09 387.52 480.6 392.37 476.58 C395.85 473.42 398.69 469.93 401.5 466.18 C403.72 463.44 406.25 461.27 408.97 459.04 C409.7 458.41 410.42 457.78 411.17 457.13 C411.73 456.78 412.29 456.43 412.87 456.08 C415.8 453.9 417.73 451.91 418.6 448.35 C419.38 442.65 419.32 436.88 419.38 431.14 C419.42 429.16 419.47 427.18 419.52 425.19 C419.62 420.88 419.7 416.57 419.77 412.25 C419.86 405.83 420 399.42 420.14 393 C420.21 389.93 420.28 386.86 420.35 383.79 C420.36 383.48 420.36 383.48 420.39 381.91 C420.49 377.41 420.58 372.9 420.67 368.4 C421.05 349.17 421.52 329.94 422.04 310.72 C422.08 309.29 422.12 307.87 422.16 306.45 C422.32 300.69 422.48 294.94 422.63 289.18 C423.06 273.82 423.46 258.45 423.86 243.08 C424.02 237.16 424.17 231.25 424.33 225.34 C424.37 223.85 424.4 222.37 424.44 220.88 C424.76 208.77 425.08 196.66 425.4 184.55 C425.74 171.85 426.08 159.15 426.41 146.46 C426.59 139.43 426.78 132.4 426.96 125.37 C427.12 119.46 427.28 113.54 427.43 107.63 C427.51 104.64 427.59 101.65 427.67 98.65 C427.83 92.77 427.97 86.89 428.07 81 C428.13 77.55 428.23 74.1 428.36 70.65 C428.44 68.19 428.49 65.73 428.54 63.27 C428.57 62.1 428.61 60.93 428.66 59.76 C428.95 52.95 428.59 48.27 423.77 42.97 C421.53 40.91 419.2 39.07 416.73 37.3 C414.62 35.72 413.14 33.99 411.48 31.94 C410.94 31.34 410.4 30.73 409.85 30.11 C408.56 28.58 407.44 27.09 406.3 25.45 C403.59 21.88 400.7 18.69 396.16 17.68 C393.73 17.48 391.33 17.42 388.89 17.4 C387.42 17.36 385.95 17.32 384.49 17.28 C382.87 17.25 381.25 17.22 379.63 17.19 C376.01 17.13 372.39 17.02 368.77 16.91 C360.87 16.67 352.97 16.46 345.07 16.25 C340.94 16.14 336.81 16.03 332.68 15.92 C323.69 15.68 314.69 15.44 305.69 15.21 C300.05 15.06 294.41 14.91 288.77 14.76 C273.09 14.35 257.41 13.93 241.72 13.52 C241.22 13.51 240.72 13.5 240.21 13.48 C237.68 13.42 235.15 13.35 232.62 13.29 C231.6 13.26 230.58 13.23 229.57 13.21 C229.07 13.19 228.56 13.18 228.04 13.17 C212.27 12.75 196.5 12.34 180.72 11.92 C162.92 11.44 145.11 10.97 127.3 10.51 C117.91 10.26 108.51 10.01 99.12 9.76 C91.11 9.55 83.1 9.34 75.1 9.13 C71.03 9.03 66.97 8.92 62.9 8.81 C54.88 8.59 46.87 8.4 38.85 8.26 C34.95 8.19 31.06 8.1 27.16 7.98 C22.89 7.85 18.63 7.76 14.36 7.69 C12.73 7.66 11.11 7.61 9.48 7.55 C-6.04 7.01 -6.04 7.01 -11.83 15.13 Z" transform="translate(60.83152675628662,15.873856544494629)"/>
  <path fill="#a2543c" d="M0 0 C0.34 -0 0.34 -0 2.06 -0.02 C4.61 0.5 5.46 1.3 7 3.38 C8.27 8.21 7.97 12.53 7 17.38 C7.31 17.99 7.62 18.61 7.94 19.25 C9.27 21.91 9.12 23.87 8.97 26.79 C9 28.38 9 28.38 10 30.38 C11.41 30.15 11.41 30.15 13 29.38 C13.91 27.12 14.46 24.86 15.06 22.5 C16 20.38 16 20.38 17.91 19.46 C20.59 18.07 21.03 16.68 22.24 14.01 C24.55 9.06 28.11 3.06 32.9 0.27 C35.59 -0.32 37.17 -0.11 39.55 1.29 C41.8 3.25 42.85 4.87 43.69 7.75 C42.78 11.23 40.81 12.95 38.39 15.54 C36.54 17.98 36.45 19.84 36.27 22.82 C35.82 25.39 33.85 26.65 32 28.38 C31.25 31.12 31.25 31.12 31 33.38 C32.75 33.19 32.75 33.19 35 32.38 C35.28 32 35.28 32 36.69 30.11 C39.28 26.75 42.55 24.9 46.19 22.81 C46.52 22.62 46.52 22.62 48.21 21.62 C52.46 19.16 56.71 17.02 61.26 15.15 C63.48 14.16 65.17 12.97 67 11.38 C71.21 12.93 73.36 15.93 76 19.38 C74.87 23.76 74.87 23.76 72.67 25.31 C70.95 26.17 69.21 26.94 67.44 27.69 C60.66 30.82 52.73 34.79 49.77 42.12 C49.64 42.49 49.64 42.49 49 44.38 C50.38 44.94 50.38 44.94 52 45.38 C52.66 45.05 53.32 44.72 54 44.38 C55.56 44.22 57.12 44.1 58.69 44 C62.04 43.71 64.71 43.26 67.75 41.81 C71.17 40.2 73.22 39.73 77 40.38 C78.62 41.6 80.07 42.94 81.55 44.32 C83 45.38 83 45.38 85.69 45.25 C87 44.75 88.31 44.25 89.62 43.75 C91.52 43.23 92.27 43.44 94 44.38 C94.18 44.71 94.18 44.71 95.11 46.43 C97 48.38 97 48.38 98.65 48.64 C101.42 48.62 104.17 48.42 106.93 48.22 C111.53 48.01 114.1 48.53 117.74 51.43 C120.07 53.18 122.77 53.35 125.62 53.4 C130.71 53.69 133.05 55.78 136.44 59.47 C138.14 61.55 139.61 63.7 141.06 65.95 C144.31 70.86 144.31 70.86 147 72.38 C149 72.33 149 72.33 151.25 72.06 C153.61 71.91 155.26 71.87 157.26 73.24 C158.58 74.43 159.76 75.67 160.94 77 C161.31 77.43 161.69 77.85 162.08 78.29 C164.67 81.46 165.9 84.44 167 88.38 C166.34 89.03 165.68 89.69 165 90.38 C165 91.37 165 92.36 165 93.38 C165.55 93.45 166.09 93.52 166.65 93.6 C174.74 95.01 181.21 98.51 186.06 105.25 C186.73 106.28 187.38 107.32 188 108.38 C187.34 109.37 186.68 110.36 186 111.38 C185.4 111.05 184.8 110.72 184.19 110.38 C182 109.38 182 109.38 179 109.38 C179.12 111.69 179.12 111.69 180 114.38 C181.41 115.05 182.82 115.71 184.26 116.32 C187.72 118.41 189.87 121.87 192.13 125.15 C192.96 126.32 193.87 127.44 194.78 128.55 C200.59 136.46 199.6 144.96 199 154.38 C198.34 154.7 198.34 154.7 195 156.38 C192.34 154.44 191.72 152.66 191.06 149.56 C190.18 145.61 188.86 142.31 186 139.38 C183.87 138.21 183.87 138.21 182 137.38 C182.25 137.82 182.51 138.27 182.77 138.74 C187.16 146.94 189.32 154.85 188.97 164.15 C189 166.3 189.3 167.76 190.06 169.75 C191.1 172.65 191.17 173.59 190 176.38 C189.48 177.14 188.97 177.9 188.44 178.69 C186.71 181.38 186.81 183.6 187.09 186.73 C186.98 188.81 186.18 189.68 185 191.38 C184.44 193.31 184.44 193.31 184 195.38 C183.4 198.19 182.61 200.01 181 202.38 C181.19 205.3 181.91 206.29 184.02 208.36 C187.18 212.25 186.59 216.97 186.5 221.75 C186.49 222.73 186.48 223.71 186.47 224.72 C186.27 232.52 185.01 239.49 182.51 246.85 C181.8 248.98 181.22 251.15 180.62 253.31 C175.6 269.78 175.6 269.78 171.7 276.67 C171.47 277.23 171.24 277.79 171 278.38 C171.64 279.84 171.64 279.84 172.81 281.31 C176.51 287.19 176.81 294.52 175.41 301.19 C173.32 307.09 170.06 311.66 165 315.38 C162.38 316.25 160.4 316.37 157.66 316.41 C153.5 317.92 152.19 321.15 150.06 324.88 C149.19 326.34 148.31 327.81 147.44 329.27 C147.02 329.98 146.6 330.69 146.17 331.42 C144.72 333.85 143.16 336.17 141.56 338.5 C139.4 341.69 137.61 344.88 136 348.38 C135.34 348.38 134.68 348.38 134 348.38 C134 350.02 134 351.68 134 353.38 C134.5 353.5 135 353.62 135.51 353.75 C140.77 355.26 145.12 357.44 149.75 360.31 C150.29 360.65 150.83 360.98 151.39 361.33 C156.66 364.67 160.94 367.4 163.69 373.19 C164.11 374.07 164.53 374.95 164.97 375.86 C165.83 377.95 166.31 379.68 166.69 381.88 C167.59 385.63 170.1 387.68 172.81 390.25 C177.54 394.73 182.75 399.69 183.12 406.57 C183.04 407.94 182.96 409.3 182.88 410.66 C183 412.38 183 412.38 184.88 414.56 C188.99 417.22 193.58 419.28 198 421.38 C198 422.04 198 422.69 198 423.38 C194.73 423.4 191.46 423.42 188.19 423.44 C187.26 423.45 186.33 423.45 185.37 423.46 C184.93 423.46 184.93 423.46 182.67 423.47 C181.85 423.48 181.02 423.48 180.18 423.49 C178 423.38 178 423.38 175 422.38 C175.33 420.06 175.66 417.75 176 415.38 C175.01 415.05 174.02 414.71 173 414.38 C172.34 417.01 171.68 419.65 171 422.38 C166.62 422.42 162.24 422.46 157.87 422.48 C156.38 422.49 154.89 422.51 153.4 422.53 C151.26 422.55 149.12 422.56 146.98 422.57 C146.31 422.58 145.64 422.59 144.95 422.6 C144.64 422.6 144.64 422.6 143.07 422.6 C142.53 422.61 141.98 422.61 141.42 422.62 C140 422.38 140 422.38 138 420.38 C138.42 419.82 138.85 419.26 139.29 418.68 C148.18 406.63 156.49 391.76 156 376.38 C155.11 373.6 155.11 373.6 154 371.38 C152.38 370.56 152.38 370.56 151 370.38 C151.35 370.99 151.7 371.61 152.06 372.25 C154.9 379.46 151.49 389.46 149 396.38 C145.67 403.95 140.89 410.74 136 417.38 C135.57 418.07 135.14 418.77 134.69 419.49 C133 421.38 133 421.38 130.82 421.83 C130.41 421.82 130.41 421.82 128.33 421.77 C127.44 421.75 126.55 421.74 125.63 421.73 C125.16 421.71 125.16 421.71 122.81 421.62 C121.87 421.61 120.93 421.59 119.96 421.57 C117.64 421.52 115.32 421.46 113 421.38 C114.87 417.55 114.87 417.55 116.04 415.96 C117.4 413.71 117.84 411.51 118.38 408.94 C118.59 407.99 118.8 407.04 119.02 406.07 C119 403.19 118.93 402.92 117.04 401.03 C116.37 400.48 115.69 399.94 115 399.38 C114.88 400.29 114.76 401.21 114.63 402.15 C114.46 403.35 114.29 404.55 114.12 405.75 C114.05 406.35 113.97 406.96 113.89 407.58 C113.8 408.16 113.72 408.74 113.63 409.34 C113.56 409.87 113.49 410.4 113.41 410.95 C113 412.38 113 412.38 111 414.38 C110.01 414.38 109.02 414.38 108 414.38 C105.62 409.62 106.11 401.38 107.6 396.35 C108.12 395.32 108.65 394.3 109.2 393.29 C110.95 389.1 111.18 384.37 111.78 379.89 C112.1 377.7 112.54 375.54 113 373.38 C111 373.38 111 373.38 109.52 374.81 C107.66 376.99 105.82 379.17 104 381.38 C103.42 382.07 102.83 382.77 102.23 383.49 C98.43 388.18 95.34 392.95 92.57 398.3 C90.58 401.96 88.81 403.62 85 405.38 C82.54 405.89 82.54 405.89 80.19 406.06 C79.4 406.13 78.61 406.19 77.79 406.26 C77.2 406.3 76.61 406.34 76 406.38 C76 403.38 76 403.38 77.07 402.26 C77.56 401.91 78.05 401.57 78.55 401.22 C79.09 400.84 79.62 400.45 80.17 400.06 C80.73 399.67 81.29 399.28 81.88 398.88 C82.98 398.1 84.08 397.32 85.18 396.53 C85.67 396.19 86.16 395.85 86.67 395.49 C88.17 394.23 89.08 393.11 90 391.38 C90 388.38 90 388.38 88.5 386.69 C88 386.25 87.51 385.82 87 385.38 C87.66 385.05 88.32 384.71 89 384.38 C89.62 382.81 89.62 382.81 90 381.38 C89.35 381.43 88.69 381.49 88.02 381.55 C79.92 381.95 74.22 379.9 67 376.38 C66.31 376.05 65.62 375.71 64.91 375.38 C63.6 374.73 62.29 374.06 61 373.38 C61 372.71 61 372.06 61 371.38 C60.48 371.14 59.96 370.91 59.42 370.67 C56.16 368.93 53.24 366.79 50.25 364.62 C49.62 364.17 48.99 363.72 48.34 363.25 C40.52 357.6 40.52 357.6 37.14 355.01 C35.48 353.74 33.8 352.5 32.11 351.27 C14.45 338.16 -7.5 319.54 -13 297.38 C-13 296.71 -13 296.06 -13 295.38 C-13.66 295.38 -14.32 295.38 -15 295.38 C-14.98 296.21 -14.97 297.04 -14.95 297.9 C-14.7 312.67 -14.59 326.98 -17.2 341.55 C-18.2 347.21 -18.7 352.9 -19.19 358.62 C-19.27 359.6 -19.35 360.57 -19.44 361.57 C-19.63 363.84 -19.82 366.11 -20 368.38 C-20.99 368.38 -21.98 368.38 -23 368.38 C-24.07 365.77 -24.1 363.49 -24.06 360.69 C-24.05 359.88 -24.04 359.07 -24.04 358.24 C-24.02 357.62 -24.01 357.01 -24 356.38 C-24.31 356.69 -24.63 357 -24.95 357.33 C-25.38 357.76 -25.81 358.18 -26.25 358.62 C-26.48 358.86 -26.48 358.86 -27.62 360.02 C-29 361.37 -29 361.37 -30.26 362.39 C-31.37 363.31 -31.37 363.31 -33 365.38 C-32.67 369.9 -31.59 372.54 -28.88 376.25 C-28.56 376.68 -28.25 377.1 -27.93 377.54 C-23.42 383.63 -18.57 389.17 -12.68 393.95 C-11 395.38 -11 395.38 -9.32 397.14 C-6.08 400.43 -2.29 403.1 1.38 405.88 C2.12 406.44 2.86 407.01 3.62 407.6 C7.32 410.41 11.01 413.13 14.99 415.53 C15.32 415.81 15.66 416.09 16 416.38 C16 417.04 16 417.69 16 418.38 C14.42 418.43 12.83 418.47 11.25 418.5 C10.37 418.52 9.49 418.55 8.58 418.57 C5.89 418.37 4.3 417.74 2 416.38 C1.67 417.04 1.34 417.69 1 418.38 C-5.59 418.27 -12.18 418.15 -18.77 418.04 C-21.83 417.98 -24.89 417.93 -27.95 417.88 C-30.92 417.83 -33.88 417.78 -36.84 417.72 C-37.96 417.7 -39.09 417.68 -40.21 417.67 C-45.81 417.58 -51.41 417.41 -57 417.02 C-57.85 416.96 -58.71 416.91 -59.59 416.85 C-63.25 416.13 -65.76 414.24 -68.71 412.05 C-75.33 407.21 -82.92 403.87 -90.38 400.56 C-91.05 400.26 -91.73 399.96 -92.43 399.65 C-99.9 396.41 -108.34 394.67 -116.35 397.08 C-117.67 397.62 -118.97 398.2 -120.25 398.82 C-122.54 399.55 -123.77 399.22 -126 398.38 C-127.79 396.98 -128.97 395.4 -130 393.38 C-130.15 387.65 -125.69 382.29 -122.07 378.19 C-116.96 372.94 -112.41 369.83 -105.65 367.12 C-102.39 365.65 -102.39 365.65 -101 364.38 C-100.41 362.05 -100.41 362.05 -100.06 359.25 C-98.72 350.71 -95.87 345.3 -89.04 340.03 C-81.69 334.77 -72.97 333.95 -64.25 332.5 C-60.25 331.83 -56.48 331.02 -52.62 329.75 C-47.46 328.08 -42.4 327.7 -37 327.38 C-35.22 327.26 -33.43 327.13 -31.65 327 C-30.48 326.92 -29.32 326.84 -28.15 326.77 C-24.11 326.49 -24.11 326.49 -23 325.38 C-22.84 323.74 -22.75 322.1 -22.68 320.46 C-22.67 320.22 -22.67 320.22 -22.62 318.99 C-22.56 317.43 -22.5 315.87 -22.44 314.31 C-22.39 313.26 -22.35 312.2 -22.31 311.15 C-22.2 308.56 -22.1 305.97 -22 303.38 C-24.47 304.53 -26.05 305.42 -28 307.38 C-30.51 307.75 -32.64 307.27 -35 306.38 C-39.92 302.62 -44.55 297.73 -45.4 291.44 C-45.41 290.42 -45.4 289.4 -45.38 288.38 C-45.39 287.87 -45.4 287.36 -45.41 286.84 C-45.38 282.8 -44.37 280.52 -42 277.38 C-41.34 277.38 -40.68 277.38 -40 277.38 C-40.49 274.07 -41.83 272.27 -43.93 269.72 C-53.36 257.91 -61.24 242.58 -62 227.38 C-62.03 226.86 -62.05 226.34 -62.08 225.81 C-62.52 216.34 -61.81 207.45 -57.77 198.72 C-57.52 197.95 -57.26 197.17 -57 196.38 C-57.84 194.98 -57.84 194.98 -59 193.38 C-59.41 191.16 -59.51 188.93 -59.62 186.69 C-59.66 186.08 -59.7 185.47 -59.74 184.85 C-59.84 183.36 -59.92 181.87 -60 180.38 C-61.32 180.38 -62.64 180.38 -64 180.38 C-63.98 180.72 -63.98 180.72 -63.89 182.46 C-63.87 183.36 -63.84 184.26 -63.81 185.19 C-63.78 186.08 -63.74 186.97 -63.71 187.89 C-64.06 190.86 -64.9 191.39 -67 193.38 C-66.9 194.88 -66.9 194.88 -66.38 196.5 C-65.48 200.94 -67.45 203.53 -69.73 207.24 C-70.82 209.08 -71.5 210.58 -72.06 212.62 C-73.14 215.79 -74.29 218.32 -77 220.38 C-79.32 221.02 -80.52 220.8 -83 220.38 C-84.94 219.19 -84.94 219.19 -86 217.38 C-85.81 214.85 -85.57 213.08 -83.95 211.08 C-82.58 208.62 -82.87 206.29 -83 203.56 C-83.09 199.74 -83.05 196.48 -81.57 192.91 C-80.21 189.23 -79.73 185.22 -79 181.38 C-78.5 178.9 -78 176.43 -77.49 173.96 C-77.15 172.15 -76.84 170.33 -76.57 168.51 C-75.79 163.48 -75.12 159.57 -71.8 155.59 C-71 154.38 -71 154.38 -71 151.38 C-76.44 153.71 -79.08 157.39 -82 162.38 C-82.66 163.18 -83.32 163.97 -84 164.75 C-85.6 166.65 -86.36 168.27 -87.12 170.62 C-88.6 174.3 -90.98 176.7 -93.81 179.38 C-94.02 179.58 -94.02 179.58 -95.07 180.62 C-96.86 182.23 -98.13 183.32 -100.59 183.47 C-103.53 183.07 -104.89 182.49 -107 180.38 C-108.46 174.39 -105.4 168.7 -103 163.38 C-102.34 163.38 -101.68 163.38 -101 163.38 C-100.75 162.65 -100.5 161.93 -100.25 161.19 C-99.43 159.11 -98.46 157.62 -97 155.94 C-95.16 153.77 -94.42 151.77 -93.61 149.04 C-91.42 143.09 -87.02 137.97 -83.04 133.14 C-82 131.38 -82 131.38 -82.34 129.64 C-82.56 129.23 -82.77 128.81 -83 128.38 C-98.26 138.45 -98.26 138.45 -101.5 142.19 C-103 143.79 -103.67 144.32 -105.86 144.69 C-107.6 144.69 -109.27 144.6 -111 144.38 C-111.19 145.06 -111.37 145.74 -111.56 146.44 C-113.38 150.94 -117.29 155.02 -121.62 157.18 C-123.73 157.71 -125.45 157.62 -127.45 156.73 C-129.95 155.04 -131.28 153.4 -131.94 150.44 C-132.19 147.29 -131.73 145.08 -130 142.38 C-128.53 141.98 -127.06 141.59 -125.58 141.23 C-122.64 139.64 -121.61 136.46 -120.15 133.57 C-118.32 130.07 -116.56 127.88 -112.69 126.62 C-108.12 124.5 -104.99 120.2 -102.11 116.11 C-99.52 112.54 -96.74 110.87 -92.75 109.06 C-92.2 108.8 -91.64 108.54 -91.07 108.26 C-89.72 107.62 -88.36 107 -87 106.38 C-87 105.72 -87 105.06 -87 104.38 C-89.19 103.69 -89.19 103.69 -92 103.38 C-93.13 104.14 -94.25 104.9 -95.36 105.69 C-97.73 106.68 -99.77 106.39 -102.31 106.25 C-107.62 106.05 -110.03 107.32 -114.22 110.4 C-116 111.38 -116 111.38 -117.72 111.19 C-119.16 110.62 -120.58 110 -122 109.38 C-123.44 110.25 -123.44 110.25 -125 111.38 C-127.43 111.86 -129.58 111.91 -132 111.38 C-134.43 109.73 -135.66 107.71 -136.38 104.88 C-136.62 101.93 -136 99.93 -134.31 97.5 C-132.6 95.61 -132.16 95.4 -129.5 95 C-127 95.38 -127 95.38 -125.08 96.08 C-123 96.38 -123 96.38 -121.11 95.2 C-120.47 94.64 -119.84 94.08 -119.19 93.5 C-115.84 90.78 -113.7 89.85 -109.46 89.58 C-107.27 89.27 -106.42 87.99 -105 86.38 C-100.97 84.18 -96.94 83.96 -92.4 83.62 C-90 83.38 -90 83.38 -88.14 82.85 C-85.01 82.16 -81.95 82.27 -78.75 82.31 C-78.1 82.32 -77.45 82.32 -76.78 82.33 C-75.19 82.34 -73.59 82.36 -72 82.38 C-72 81.38 -72 80.39 -72 79.38 C-72.89 79.6 -73.77 79.83 -74.69 80.06 C-76.2 80.45 -76.2 80.45 -78 80.38 C-78.71 79.9 -79.43 79.42 -80.16 78.93 C-83.72 76.62 -87.57 76.89 -91.69 76.81 C-93.21 76.78 -94.74 76.74 -96.26 76.68 C-96.93 76.67 -97.6 76.66 -98.29 76.65 C-100 76.38 -100 76.38 -102 74.38 C-104.56 74.19 -104.56 74.19 -107 74.38 C-107.33 74.7 -107.66 75.03 -108 75.38 C-110.39 75.76 -111.72 75.95 -114 75.38 C-117.01 73.05 -118.71 70.47 -119.69 66.81 C-118.63 63.06 -116.29 61.32 -113 59.38 C-108.84 57.76 -106 58.69 -102 60.38 C-100.66 60.08 -99.32 59.74 -98 59.38 C-88.88 58.02 -88.88 58.02 -84.5 58.94 C-83.67 59.08 -82.85 59.23 -82 59.38 C-81.34 58.72 -80.68 58.06 -80 57.38 C-77.34 57.01 -74.68 57.22 -72 57.38 C-71.71 57.39 -71.71 57.39 -70.27 57.46 C-64.82 58 -59.98 60.22 -55 62.38 C-55.42 60.23 -55.8 59.51 -57.63 58.24 C-58.31 57.89 -59 57.54 -59.71 57.18 C-60.09 56.99 -60.09 56.99 -61.98 56.01 C-62.38 55.81 -62.38 55.81 -64.38 54.81 C-65.93 54.02 -67.47 53.23 -69.02 52.43 C-69.71 52.09 -70.4 51.74 -71.11 51.38 C-73 50.38 -73 50.38 -74.62 49.29 C-76.44 48.08 -78.27 47.65 -80.38 47.06 C-84.18 45.85 -86.24 44.55 -88.82 41.57 C-90.5 39.87 -92.42 39.1 -94.57 38.13 C-96.83 36.93 -98.3 35.27 -100 33.38 C-98.89 29.73 -97.61 27.3 -94.48 25.04 C-92.2 24.02 -90.37 24.25 -87.94 24.62 C-86.05 25.35 -84.86 26.18 -83.24 27.37 C-79.79 29.75 -76.67 30.11 -72.56 30.44 C-67.88 30.93 -63.82 31.43 -59.58 33.6 C-57.7 34.52 -55.81 35.08 -53.81 35.69 C-49.92 36.95 -46.29 38.56 -42.62 40.38 C-42.11 40.62 -41.6 40.87 -41.07 41.13 C-38.22 42.58 -36.25 44.06 -34 46.38 C-33.01 46.74 -32.01 47.08 -31 47.38 C-32.34 42.27 -34.49 39.2 -38 35.31 C-41.82 31.05 -44.86 27.55 -45.12 21.56 C-45.08 20.84 -45.04 20.12 -45 19.38 C-45.36 19.26 -45.36 19.26 -47.19 18.69 C-50.48 17.34 -53.1 15.42 -55 12.38 C-55.4 10.07 -55.03 8.46 -54 6.38 C-52.19 3.96 -50.25 2.69 -47.32 1.96 C-43.85 1.67 -41.63 2.3 -38.88 4.44 C-36.72 6.43 -35.12 8.56 -33.5 11 C-31.45 14.06 -29.71 15.3 -26.36 16.7 C-24.21 17.77 -23.18 19.34 -22 21.38 C-22 22.03 -22 22.69 -22 23.38 C-21.64 23.45 -21.64 23.45 -19.81 23.81 C-15.5 25.5 -13.77 30.39 -12 34.38 C-11.85 35.11 -11.7 35.84 -11.55 36.6 C-11.37 37.19 -11.19 37.77 -11 38.38 C-9.47 38.99 -9.47 38.99 -8 39.38 C-8.08 38.89 -8.08 38.89 -8.49 36.46 C-9.91 26.44 -10.86 12.95 -7 3.38 C-4.88 0.62 -3.45 -0.04 0 0 Z M33.22 45.8 C30.07 48.03 27.01 48.18 23.25 48.69 C16.64 49.74 11.53 51.09 7 56.38 C6.31 58.06 6.31 58.06 6 59.38 C9.82 58.79 12.59 57.64 15.94 55.75 C21.22 52.99 21.22 52.99 24.25 53.81 C27 54.38 27 54.38 28.34 53.71 C29.31 53.01 30.26 52.29 31.21 51.57 C34.8 49.18 38.98 47.87 43 46.38 C43 45.72 43 45.06 43 44.38 C41.75 44.29 40.5 44.24 39.25 44.19 C38.9 44.17 38.9 44.17 37.14 44.08 C35 44.38 35 44.38 33.22 45.8 Z M-5 58.38 C-5.5 59.3 -5.99 60.23 -6.5 61.19 C-8.28 63.88 -9.62 64.85 -12.69 65.81 C-16.2 66.93 -19.01 68.54 -21.94 70.75 C-22.69 71.31 -23.44 71.88 -24.21 72.46 C-26.34 74.74 -26.67 76.32 -27 79.38 C-26.01 79.7 -25.02 80.03 -24 80.38 C-23.4 79.78 -22.8 79.18 -22.19 78.56 C-21.46 77.83 -20.73 77.1 -20 76.38 C-19.56 75.87 -19.12 75.37 -18.67 74.86 C-16.6 73.02 -14.67 72.35 -12.06 71.44 C-8.09 69.93 -5.92 68.49 -3 65.38 C-0.4 63.9 2.28 62.62 5 61.38 C5 60.72 5 60.06 5 59.38 C1.7 59.05 -1.6 58.72 -5 58.38 Z M-35 84.38 C-37.95 87.7 -39.48 89.82 -40 94.38 C-39.01 94.38 -38.02 94.38 -37 94.38 C-35.9 93.17 -35.9 93.17 -34.94 91.56 C-34.62 91.04 -34.3 90.52 -33.96 89.98 C-33.65 89.45 -33.33 88.92 -33 88.38 C-32.34 87.37 -31.67 86.37 -31 85.38 C-32.32 85.05 -33.64 84.72 -35 84.38 Z M-43.88 100.17 C-44.59 100.96 -45.3 101.76 -46 102.56 C-46.36 102.95 -46.71 103.34 -47.08 103.74 C-49.49 106.46 -50.83 108.93 -52 112.38 C-51.01 112.38 -50.02 112.38 -49 112.38 C-48 111.21 -47.02 110.04 -46.12 108.8 C-44.94 107.3 -43.66 106.1 -42.25 104.81 C-40.43 103.05 -40.04 102.67 -39.69 100.06 C-39.79 99.51 -39.89 98.95 -40 98.38 C-42 98.38 -42 98.38 -43.88 100.17 Z M-82 102.38 C-82 103.69 -82 105.01 -82 106.38 C-80.35 106.38 -78.7 106.38 -77 106.38 C-76.34 105.06 -75.68 103.74 -75 102.38 C-77.73 101.53 -79.36 101.19 -82 102.38 Z M84 105.38 C83.53 105.91 83.05 106.45 82.56 107 C78.96 108.93 76.73 107.9 72.93 106.82 C72.29 106.67 71.65 106.53 71 106.38 C70.67 106.7 70.34 107.03 70 107.38 C68.4 107.58 66.79 107.74 65.19 107.88 C62.65 108.08 60.29 108.3 57.83 108.95 C56 109.38 56 109.38 53.5 108.69 C52.68 108.58 51.85 108.48 51 108.38 C50.68 108.69 50.68 108.69 49.06 110.31 C47 112.38 47 112.38 44.31 112.5 C43.81 112.46 43.31 112.43 42.79 112.39 C39.14 112.36 35.49 113.37 32 114.38 C31.67 114.7 31.34 115.03 31 115.38 C29.71 115.48 28.42 115.56 27.12 115.62 C24.92 115.87 24.92 115.87 23 116.38 C21.44 118.75 21.44 118.75 20 121.38 C18.31 122.31 16.6 122.95 14.79 123.62 C12.09 124.76 10.19 126.45 8 128.38 C8.16 129.03 8.16 129.03 9 132.38 C9.66 132.38 10.32 132.38 11 132.38 C10.53 133.12 10.05 133.86 9.56 134.62 C8.23 136.83 7.47 138.82 7 141.38 C7.5 141.7 7.5 141.7 10 143.38 C9.93 143.65 9.93 143.65 9.56 145.06 C8.97 147.49 8.47 149.92 8 152.38 C7.89 152.87 7.79 153.37 7.68 153.89 C7.2 156.31 6.87 158.01 7.69 160.38 C8.14 163.26 6.84 164.44 5.23 166.77 C2.88 169.84 0.12 172.54 -2.64 175.23 C-5.91 178.62 -5.91 178.62 -6.19 180.91 C-6.16 181.43 -6.14 181.94 -6.11 182.47 C-5.98 186 -6.9 186.68 -9 189.38 C-9.26 191.78 -9.26 191.78 -9.12 194.31 C-9.01 197.89 -9.26 200.87 -10 204.38 C-10.02 205.65 -10.02 206.92 -10 208.19 C-9.95 212.33 -10.4 216.29 -11 220.38 C-11.08 220.98 -11.17 221.59 -11.25 222.22 C-11.63 224.95 -12.05 227.66 -12.56 230.38 C-13.07 233.23 -13 235.97 -12.84 238.86 C-13 240.38 -13 240.38 -15 242.38 C-15.91 240.53 -16.8 238.67 -17.69 236.81 C-17.83 236.52 -17.83 236.52 -18.53 235.05 C-20.24 231.35 -21.52 227.73 -22.6 223.8 C-25.53 213.36 -32.62 203.18 -42 197.38 C-45.77 197.57 -49.18 198.84 -52 201.38 C-56.96 208.08 -57.18 214.73 -57.19 222.81 C-57.2 223.65 -57.21 224.48 -57.22 225.34 C-57.24 230.14 -56.83 233.93 -55 238.38 C-53.51 237.26 -53.51 237.26 -52 235.38 C-51.77 233.24 -51.72 231.4 -51.81 229.28 C-51.82 228.99 -51.82 228.99 -51.85 227.5 C-51.88 225.62 -51.94 223.75 -52 221.88 C-52.08 219.41 -52.14 216.94 -52.19 214.47 C-52.21 213.9 -52.24 213.34 -52.26 212.75 C-52.31 210.11 -52.21 208.66 -50.63 206.49 C-49 205.38 -49 205.38 -46.75 205.44 C-41.16 207.34 -36.85 209.62 -33.77 214.8 C-32.81 216.78 -32.13 218.75 -31.59 220.88 C-31 222.38 -31 222.38 -29.46 224.23 C-27.68 226.84 -27.6 228.37 -27.62 231.5 C-27.62 232.37 -27.61 233.24 -27.6 234.13 C-28 236.38 -28 236.38 -29.52 237.68 C-30.01 237.91 -30.5 238.14 -31 238.38 C-30.34 239.69 -29.68 241.01 -29 242.38 C-28.34 242.38 -27.68 242.38 -27 242.38 C-26.93 242.82 -26.93 242.82 -26.56 245.06 C-26.1 247.85 -25.57 250.61 -25 253.38 C-26.28 254.03 -26.28 254.03 -28 254.38 C-29.75 253.38 -29.75 253.38 -31.56 251.94 C-34.81 249.38 -34.81 249.38 -37 249.38 C-36.67 248.78 -36.34 248.18 -36 247.56 C-35 245.38 -35 245.38 -35 242.38 C-36.65 242.38 -38.3 242.38 -40 242.38 C-41.52 240.47 -42.47 238.77 -43 236.38 C-41.77 230.67 -38.92 226.63 -34.17 223.35 C-33.79 223.03 -33.4 222.71 -33 222.38 C-33 221.72 -33 221.06 -33 220.38 C-34.21 219.67 -35.42 218.97 -36.64 218.3 C-38.15 217.27 -38.95 216.24 -40 214.75 C-41.61 212.56 -41.93 212.4 -44.75 211.56 C-45.12 211.53 -45.12 211.53 -47 211.38 C-48.84 216.92 -49.37 222.05 -49.57 227.86 C-49.76 232.04 -50.57 235.46 -52 239.38 C-53.02 242.53 -53.22 244.35 -51.85 247.32 C-51.27 248.39 -50.67 249.45 -50.06 250.5 C-49.75 251.06 -49.43 251.63 -49.11 252.21 C-46.1 257.45 -42.67 262.38 -38.96 267.14 C-38.28 268.01 -37.62 268.9 -36.98 269.8 C-35.95 271.19 -35.95 271.19 -34 273.38 C-33.01 273.38 -32.02 273.38 -31 273.38 C-31.35 272.65 -31.7 271.93 -32.06 271.19 C-33.1 268.06 -32.89 266.49 -32 263.38 C-30.68 263.71 -29.36 264.03 -28 264.38 C-27.34 267.68 -26.68 270.98 -26 274.38 C-21 273.38 -21 273.38 -19.71 272 C-19.56 271.73 -19.56 271.73 -18.81 270.38 C-17.16 267.46 -17.16 267.46 -15 266.38 C-14.89 266.96 -14.79 267.54 -14.68 268.14 C-14.19 270.85 -13.69 273.55 -13.19 276.25 C-13.02 277.17 -12.86 278.09 -12.69 279.03 C-11.13 287.39 -9.22 295.74 -5.38 303.38 C-5.12 303.87 -4.87 304.37 -4.62 304.88 C-1.87 310.04 1.83 314.16 5.93 318.29 C6.9 319.27 7.84 320.29 8.78 321.3 C12.91 325.68 17.55 329.04 22.53 332.37 C24.18 333.5 25.78 334.67 27.39 335.85 C27.97 336.27 28.55 336.69 29.14 337.12 C30.28 337.94 31.41 338.78 32.53 339.62 C36.47 342.43 36.47 342.43 39.38 342.12 C39.92 341.88 40.45 341.63 41 341.38 C41 340.72 41 340.06 41 339.38 C43.31 339.71 45.62 340.03 48 340.38 C47.93 340.73 47.93 340.73 47.56 342.5 C48.17 346.46 50.06 347.61 53.12 350.03 C55.35 351.63 57.63 352.99 60 354.38 C60.5 354.95 60.99 355.53 61.5 356.12 C62 356.54 62.49 356.95 63 357.38 C65.81 357.09 68.36 356.35 71 355.38 C71.33 357.02 71.66 358.68 72 360.38 C76.34 360.86 76.34 360.86 78.22 359.48 C79.2 358.49 80.1 357.44 81 356.38 C81 358.02 81 359.68 81 361.38 C82.94 361.34 84.87 361.27 86.81 361.19 C87.36 361.18 87.91 361.18 88.47 361.17 C90.12 361.08 91.45 360.95 93 360.38 C94.32 358.81 95.07 357.22 96 355.38 C96.66 355.38 97.32 355.38 98 355.38 C98.33 357.02 98.66 358.68 99 360.38 C101.54 361.39 103.83 361.57 106.56 361.62 C107.35 361.65 108.13 361.68 108.94 361.7 C109.28 361.65 109.28 361.65 111 361.38 C112.11 359.84 112.11 359.84 113 358.38 C113.44 358.44 113.44 358.44 115.69 358.75 C118.12 358.84 118.83 358.53 120.67 356.88 C126.33 349.83 132.09 341.18 134.92 332.58 C136.38 329.6 137.95 329.47 141 328.38 C150.77 318.97 154.92 305.33 159.11 292.82 C160.95 287.34 162.91 281.95 165.1 276.6 C170.36 263.56 171.26 251.89 171.06 238 C170.76 213.08 170.76 213.08 172.57 206.21 C173.24 203.33 172.45 201.91 171 199.38 C166.46 195.39 161.33 193.14 155.25 193.21 C150.82 193.53 146.47 194.42 142.12 195.29 C140.44 195.62 138.76 195.94 137.07 196.25 C125.81 198.42 125.81 198.42 122 202.38 C121.12 204.62 121.12 204.62 121 206.38 C124.75 206.66 127.52 205.64 131 204.38 C128.29 207.36 125.48 208.69 121.84 210.31 C119.78 211.5 118.99 212.23 118 214.38 C117.19 220.94 118.37 227.06 120 233.38 C120.27 234.62 120.54 235.86 120.81 237.11 C122.28 243.7 123.76 249.58 127.31 255.38 C129.69 259.28 130.76 262.16 129.66 266.73 C127.41 272.31 121.21 275.01 116 277.38 C113.41 277.99 113.41 277.99 111 278.38 C110.72 278.43 110.72 278.43 109.33 278.72 C106.15 279.05 104.51 278.75 101.89 276.81 C101.11 276.17 100.34 275.52 99.56 274.88 C94.53 270.76 89.94 270.81 83.62 271.37 C80.22 271.63 77.9 271.71 75.04 269.68 C73.3 268.03 73.02 267.46 72.51 265.02 C72.57 264.23 72.63 263.44 72.69 262.62 C72.73 261.83 72.78 261.03 72.82 260.2 C72.88 259.6 72.94 259 73 258.38 C73.99 258.04 74.98 257.72 76 257.38 C75.94 257.82 75.88 258.27 75.82 258.73 C75.46 263.61 75.46 263.61 77.11 265.95 C78.36 267.18 79.62 268.31 81 269.38 C81.5 268.88 81.99 268.38 82.5 267.88 C85.44 266.11 87.27 265.66 90.66 265.73 C93.87 266.61 95.94 268.38 98.5 270.44 C104.31 275.04 104.31 275.04 108.19 274.81 C112.39 273.77 115.06 270.9 118.1 267.96 C120.76 265.74 122.59 265.46 126 265.38 C126.33 261.23 125.38 258.75 123.25 255.31 C117.81 245.9 115.39 236.08 114 225.38 C113.85 224.42 113.71 223.47 113.55 222.49 C112.73 216.18 112.97 211.07 116 205.38 C117.45 203.56 118.99 201.89 120.58 200.2 C122.67 197.51 123.42 194.66 124.26 191.39 C125.15 188.95 125.94 187.96 128 186.38 C135.98 182.75 143.87 182.01 152.56 182.38 C153.42 182.4 154.28 182.43 155.16 182.46 C160.43 182.81 163.29 183.55 167 187.38 C168 188.71 169 190.04 170 191.38 C170.66 191.38 171.32 191.38 172 191.38 C172.13 185.38 171.74 179.52 171.12 173.56 C171.03 172.68 170.94 171.8 170.85 170.89 C169.83 161.35 168.33 152.41 165 143.38 C164.65 142.32 164.29 141.26 163.94 140.21 C160.29 129.58 155.15 123.08 145.23 117.7 C143 116.38 143 116.38 141.42 114.71 C140 113.38 140 113.38 138.28 113.15 C137.69 113.21 137.11 113.26 136.5 113.31 C133.31 113.59 133.31 113.59 131.6 112.41 C128.8 110.6 125.53 110.91 122.28 110.72 C120 110.38 120 110.38 118 108.38 C114.6 108.57 112.41 109.7 109.62 111.5 C106.33 113.49 104.21 113.63 100.48 112.93 C99 112.38 99 112.38 97 110.38 C94.98 109.85 94.98 109.85 92.62 109.44 C88.95 108.7 86.7 107.96 84 105.38 Z M-53 118.38 C-54.86 121.51 -55.2 123.75 -55 127.38 C-53.68 127.05 -52.36 126.72 -51 126.38 C-50.67 124.06 -50.34 121.75 -50 119.38 C-50.99 119.05 -51.98 118.72 -53 118.38 Z M-59 136.38 C-59 137.03 -59 137.69 -59 138.38 C-58.34 138.38 -57.68 138.38 -57 138.38 C-57 137.72 -57 137.06 -57 136.38 C-57.66 136.38 -58.32 136.38 -59 136.38 Z M-59 143.38 C-60.61 146.19 -61.23 148.12 -61 151.38 C-60.01 151.04 -59.02 150.72 -58 150.38 C-57.67 148.06 -57.34 145.75 -57 143.38 C-57.66 143.38 -58.32 143.38 -59 143.38 Z M-1 149.38 C-1 150.03 -1 150.69 -1 151.38 C-0.01 151.38 0.98 151.38 2 151.38 C2 150.72 2 150.06 2 149.38 C1.01 149.38 0.02 149.38 -1 149.38 Z M-61 158.38 C-62 159.38 -62 159.38 -62.1 161 C-62.09 161.64 -62.07 162.28 -62.06 162.94 C-62.05 163.58 -62.04 164.22 -62.04 164.88 C-62.02 165.37 -62.01 165.87 -62 166.38 C-60.68 165.72 -59.36 165.06 -58 164.38 C-58 162.72 -58 161.07 -58 159.38 C-58.99 159.04 -59.98 158.72 -61 158.38 Z M178 212.38 C178 213.37 178 214.36 178 215.38 C178.99 215.38 179.98 215.38 181 215.38 C180.67 214.38 180.34 213.39 180 212.38 C179.34 212.38 178.68 212.38 178 212.38 Z M177 222.38 C176.8 224.98 176.62 227.58 176.44 230.19 C176.38 230.93 176.33 231.66 176.27 232.42 C176.22 233.14 176.17 233.85 176.12 234.58 C176.07 235.24 176.03 235.89 175.98 236.57 C176 238.39 176.32 239.69 177 241.38 C177.99 241.38 178.98 241.38 180 241.38 C181.21 237.62 181.11 234.03 181.06 230.12 C181.06 229.48 181.05 228.83 181.05 228.16 C181.04 226.56 181.02 224.97 181 223.38 C179.68 223.04 178.36 222.72 177 222.38 Z M-36 231.38 C-37.32 232.37 -38.64 233.36 -40 234.38 C-39.67 236.02 -39.34 237.68 -39 239.38 C-38.34 239.54 -38.34 239.54 -35 240.38 C-34.34 238.06 -33.68 235.75 -33 233.38 C-33.99 232.72 -34.98 232.06 -36 231.38 Z M-29 278.38 C-28.67 280.36 -28.34 282.33 -28 284.38 C-28.99 284.38 -29.98 284.38 -31 284.38 C-31.17 283.55 -31.17 283.55 -32 279.38 C-33.32 279.7 -34.64 280.04 -36 280.38 C-36.19 282 -36.38 283.62 -36.56 285.25 C-36.67 286.15 -36.77 287.06 -36.88 287.99 C-37 290.38 -37 290.38 -36 292.38 C-33.44 293 -33.44 293 -31 293.38 C-31.35 293.95 -31.7 294.53 -32.06 295.12 C-33.15 297.73 -32.93 298.77 -32 301.38 C-28.2 301.05 -25.54 300.07 -22.95 297.3 C-21.57 294.5 -21.48 291.91 -21.44 288.81 C-21.42 288.25 -21.41 287.68 -21.39 287.1 C-21.47 284.11 -21.79 282.21 -23.85 279.97 C-26 278.38 -26 278.38 -29 278.38 Z M166 287.38 C162.95 296.01 162.95 296.01 162.44 299.69 C162.01 302.32 161.21 304.03 160 306.38 C160 307.37 160 308.36 160 309.38 C162.56 309.3 164.34 309.04 166.19 307.17 C169.79 301.72 169.79 295.7 170 289.38 C168.68 288.71 167.36 288.06 166 287.38 Z M-38 292.38 C-38 293.37 -38 294.36 -38 295.38 C-37.34 295.38 -36.68 295.38 -36 295.38 C-36 294.38 -36 293.39 -36 292.38 C-36.66 292.38 -37.32 292.38 -38 292.38 Z M-36 335.38 C-36 336.69 -36 338.01 -36 339.38 C-34.06 339.06 -34.06 339.06 -32 338.38 C-31.25 336.81 -31.25 336.81 -31 335.38 C-32.65 335.38 -34.3 335.38 -36 335.38 Z M-49.94 342.06 C-50.2 342.23 -50.2 342.23 -51.53 343.09 C-55.07 345.46 -57.58 347.86 -60 351.38 C-60 352.04 -60 352.69 -60 353.38 C-56.08 352.78 -53.77 350.89 -50.81 348.44 C-50.36 348.08 -49.91 347.72 -49.45 347.35 C-47.53 345.78 -46.12 344.61 -45 342.38 C-42.94 341.25 -42.94 341.25 -41 340.38 C-41 339.71 -41 339.06 -41 338.38 C-44.96 338.38 -46.75 339.9 -49.94 342.06 Z M-81.62 343.38 C-81.85 343.56 -81.85 343.56 -82.98 344.5 C-83.15 344.64 -83.15 344.64 -84 345.38 C-80.3 357.59 -66.28 365.55 -56.41 372.5 C-48.31 378.23 -40.56 384.41 -32.92 390.74 C-27.88 394.91 -22.75 398.96 -17.56 402.94 C-16.88 403.47 -16.19 404.01 -15.48 404.57 C-14.83 405.06 -14.18 405.56 -13.5 406.07 C-12.92 406.51 -12.35 406.96 -11.75 407.42 C-9.68 408.55 -8.32 408.56 -6 408.38 C-8.97 404.4 -11.98 401.44 -16.16 398.75 C-17.71 397.59 -18.93 396.47 -20.27 395.09 C-23.33 391.96 -26.7 389.27 -30.12 386.56 C-30.78 386.04 -31.44 385.51 -32.12 384.97 C-36.86 381.23 -41.67 377.62 -46.58 374.11 C-48.8 372.52 -51 370.89 -53.19 369.25 C-53.81 368.78 -54.44 368.31 -55.08 367.83 C-56.46 366.78 -57.83 365.73 -59.2 364.67 C-59.92 364.12 -60.64 363.57 -61.38 363 C-62.02 362.5 -62.67 361.99 -63.34 361.48 C-65 360.38 -65 360.38 -67 360.38 C-67 359.71 -67 359.06 -67 358.38 C-68.64 356.75 -68.64 356.75 -70.81 354.94 C-72.21 353.76 -73.61 352.57 -75 351.38 C-75.59 350.88 -76.18 350.39 -76.78 349.88 C-78 348.38 -78 348.38 -78.07 346.55 C-78.01 346.24 -78.01 346.24 -77.69 344.69 C-77.57 344.06 -77.45 343.44 -77.32 342.8 C-77.22 342.33 -77.11 341.86 -77 341.38 C-79.4 341.38 -79.84 341.87 -81.62 343.38 Z M-98 369.38 C-98.16 370.04 -98.16 370.04 -99 373.38 C-98.11 373.81 -97.23 374.24 -96.31 374.69 C-94.33 375.67 -92.5 376.69 -90.62 377.88 C-88.5 379.2 -86.36 380 -84 380.81 C-81.33 381.76 -79.34 382.72 -77.19 384.56 C-75 386.38 -75 386.38 -72 386.38 C-72.61 383.07 -74.69 381.74 -77.25 379.75 C-78.02 379.14 -78.79 378.53 -79.58 377.9 C-82.14 376.28 -84 375.67 -87 375.38 C-87.33 375.54 -87.33 375.54 -89 376.38 C-89 375.71 -89 375.06 -89 374.38 C-90.21 373.09 -90.21 373.09 -91.81 371.75 C-92.33 371.3 -92.86 370.86 -93.39 370.4 C-95 369.38 -95 369.38 -98 369.38 Z M138 379.38 C138 380.37 138 381.36 138 382.38 C138.66 382.38 139.32 382.38 140 382.38 C140 381.38 140 380.39 140 379.38 C139.34 379.38 138.68 379.38 138 379.38 Z M-6 409.38 C-6 410.04 -6 410.69 -6 411.38 C-5.01 411.38 -4.02 411.38 -3 411.38 C-3 410.71 -3 410.06 -3 409.38 C-3.99 409.38 -4.98 409.38 -6 409.38 Z" transform="translate(194,51.625)"/>
  <path fill="#a2543c" d="M0 0 C0.61 0.05 1.22 0.09 1.84 0.14 C2.17 0.17 2.17 0.17 3.82 0.32 C4.16 0.35 4.16 0.35 5.89 0.5 C7.34 0.62 8.78 0.75 10.23 0.89 C12.41 1.09 14.59 1.26 16.77 1.43 C26.54 2.28 36.69 3.48 43.88 10.9 C44.69 13.15 44.69 13.15 44.88 14.9 C46.2 15.23 47.52 15.56 48.88 15.9 C47.31 19.65 47.31 19.65 45.51 20.71 C43.88 20.9 43.88 20.9 42.19 20.46 C40.02 19.94 38.73 19.95 36.54 20.09 C29.94 20.13 23.64 17.78 17.38 15.89 C5.71 12.4 -4.35 11.37 -15.74 16.53 C-18.64 17.83 -20.91 18.19 -24.12 17.9 C-24.33 16.11 -24.33 16.11 -24.12 13.9 C-19.19 7.87 -8.12 -0.66 0 0 Z" transform="translate(236.119384765625,226.098388671875)"/>
  <path fill="#a2543c" d="M0 0 C3.43 0.08 5.18 0.23 7.73 2.62 C9.22 4.38 10.64 6.15 12 8 C11.67 8.66 11.34 9.32 11 10 C7.81 8.6 5.68 6.92 3.25 4.44 C2.64 3.82 2.02 3.2 1.39 2.56 C0 1 0 1 0 0 Z" transform="translate(258,250)"/>
  <path fill="#a2543c" d="M0 0 C0.58 -0.02 1.16 -0.04 1.75 -0.05 C8.15 -0.04 12.3 3.66 16.94 7.69 C17.4 8.06 17.86 8.44 18.34 8.82 C19.62 9.93 20.65 10.89 21.56 12.31 C21.35 15.1 21.35 15.1 20.56 17.31 C16.86 15.8 14.02 13.45 11.56 10.31 C11.56 9.65 11.56 8.99 11.56 8.31 C10.74 8.15 10.74 8.15 6.56 7.31 C6.55 7.55 6.55 7.55 6.48 8.74 C6.02 13.8 6.02 13.8 3.88 16.19 C0.52 17.82 -2.34 18.88 -6.05 17.88 C-10.01 16.14 -11.42 14.04 -13.44 10.31 C-14.1 10.31 -14.76 10.31 -15.44 10.31 C-16.1 11.63 -16.76 12.95 -17.44 14.31 C-20.74 13.65 -24.04 12.99 -27.44 12.31 C-26.29 6.58 -26.29 6.58 -23.62 4.62 C-16.73 0.17 -7.98 0.16 0 0 Z" transform="translate(248.4375,253.6875)"/>
  <path fill="#a2543c" d="M0 0 C7.19 -0.28 14.18 0.64 19.78 5.53 C21.4 7.43 21.65 8.13 22.03 10.71 C19.79 14.68 15.8 15.65 11.65 17.15 C11.65 14.15 11.65 14.15 12.4 12.21 C12.48 11.53 12.57 10.85 12.65 10.15 C10.84 7.9 10.84 7.9 8.65 6.15 C7.99 6.15 7.33 6.15 6.65 6.15 C6.53 6.78 6.41 7.41 6.29 8.05 C6.12 8.87 5.95 9.69 5.78 10.53 C5.61 11.34 5.45 12.15 5.29 12.99 C4.65 15.15 4.65 15.15 2.65 17.15 C-1.42 17.77 -6.44 18.48 -9.96 16.03 C-11.04 14.65 -11.04 14.65 -12.35 12.15 C-12.64 12.22 -12.64 12.22 -14.1 12.59 C-16.18 13.11 -18.26 13.63 -20.35 14.15 C-20.68 13.16 -21.01 12.17 -21.35 11.15 C-16.63 6.05 -11.54 0.75 -4.29 0.21 C-2.86 0.17 -1.43 0.09 0 0 Z" transform="translate(335.34765625,258.84765625)"/>
  <path fill="#a2543c" d="M0 0 C3.08 0.09 4.41 0.43 6.67 2.62 C8.16 4.38 9.6 6.16 11 8 C10.34 9.32 9.68 10.64 9 12 C7.06 11.25 7.06 11.25 5 10 C4.86 9.34 4.71 8.68 4.56 8 C4.47 7.67 4.47 7.67 4 6 C1.44 4.75 1.44 4.75 -1 4 C-0.67 2.68 -0.34 1.36 0 0 Z" transform="translate(328,338)"/>
  <path fill="#a2543c" d="M0 0 C0.33 1.32 0.66 2.64 1 4 C7.47 6.01 13.43 6.17 20.15 5.84 C24.48 5.71 27.41 6.38 31.31 8.25 C33.96 9.43 36.64 9.9 39.5 10.31 C40.06 10.4 40.62 10.48 41.2 10.57 C45.4 11.11 49.19 11.11 53 9 C53.66 8.34 54.32 7.68 55 7 C57.34 6.77 57.34 6.77 60.23 6.8 C60.73 6.81 61.24 6.81 61.76 6.81 C63.39 6.82 65 6.85 66.62 6.88 C67.72 6.89 68.82 6.89 69.92 6.9 C72.61 6.92 75.31 6.96 78 7 C77.22 11.81 77.22 11.81 75.26 13.55 C74.55 13.94 73.85 14.34 73.12 14.75 C72.78 14.95 72.78 14.95 71.01 15.98 C69.34 16.83 67.79 17.48 66 18 C66 17.01 66 16.02 66 15 C64.44 14.95 62.88 14.91 61.31 14.88 C60.44 14.85 59.57 14.83 58.68 14.8 C56 15 56 15 53.68 16.02 C49.94 17.39 46.69 17.09 42.75 16.81 C42.36 16.79 42.36 16.79 40.37 16.67 C34.07 16.22 27.97 15.18 21.79 13.94 C17.19 13.07 13.46 13.1 8.84 13.93 C5.93 14.04 4.18 12.65 1.84 11.06 C-1.49 9.14 -5.25 8.65 -9 8 C-8.46 5.12 -7.97 3.54 -5.62 1.75 C-5.2 1.41 -4.78 1.08 -4.35 0.73 C-3 0 -3 0 0 0 Z" transform="translate(251,341)"/>
  <path fill="#a2543c" d="M0 0 C3.77 0.32 7.52 0.36 11.3 0.26 C9.19 5.13 6.17 7.3 1.3 9.26 C-5.21 10.45 -10.26 10.03 -15.89 6.45 C-18.41 4.61 -20.07 3.39 -20.7 0.26 C-13.62 -0.8 -7.09 -0.61 0 0 Z" transform="translate(296.703125,370.7421875)"/>
  <path fill="#a2543c" d="M0 0 C1.39 0.78 2.78 1.57 4.17 2.36 C6.7 3.8 9.26 5.18 11.81 6.56 C12.74 7.07 13.67 7.58 14.61 8.09 C15.27 8.45 15.94 8.81 16.62 9.19 C16.62 9.85 16.62 10.51 16.62 11.19 C11.53 11.25 6.45 11.24 1.36 11.2 C-0.49 11.19 -2.33 11.2 -4.18 11.22 C-21.4 11.39 -21.4 11.39 -25.15 8.45 C-26.9 6.43 -28.11 4.52 -29.38 2.19 C-29.92 1.65 -30.46 1.11 -31.02 0.55 C-32.38 -0.81 -32.38 -0.81 -32.38 -2.81 C-20.81 -8.24 -10.83 -5.93 0 0 Z" transform="translate(106.375,456.8125)"/>
</svg>
