<svg xmlns="http://www.w3.org/2000/svg" width="512" height="512" viewBox="0 0 512 512" aria-hidden="true" focusable="false">
  <rect width="512" height="512" fill="#e4be8b"/>
  <path fill="#a2543c" d="M0 0 C0.7 0.02 1.4 0.03 2.12 0.05 C4.3 0.1 6.47 0.18 8.65 0.26 C9.94 0.31 11.23 0.35 12.52 0.39 C16.51 0.54 20.49 0.74 24.47 0.93 C26 1.01 27.52 1.08 29.05 1.15 C33.19 1.35 37.33 1.55 41.47 1.76 C45.95 1.98 50.44 2.19 54.92 2.41 C63.68 2.83 72.45 3.26 81.21 3.68 C88.33 4.03 95.45 4.38 102.58 4.73 C104.63 4.83 106.69 4.93 108.75 5.03 C109 5.04 109 5.04 110.3 5.1 C124.66 5.8 139.02 6.5 153.39 7.2 C153.93 7.23 154.47 7.25 155.02 7.28 C157.76 7.42 160.5 7.55 163.23 7.68 C163.78 7.71 164.32 7.74 164.88 7.76 C165.98 7.82 167.08 7.87 168.18 7.93 C185.3 8.76 202.42 9.6 219.54 10.42 C238.81 11.35 258.08 12.29 277.35 13.23 C279.41 13.33 281.46 13.43 283.52 13.54 C283.77 13.55 283.77 13.55 285.05 13.61 C293.18 14.01 301.31 14.4 309.43 14.79 C317.6 15.19 325.77 15.58 333.93 15.99 C338.35 16.21 342.77 16.42 347.19 16.63 C351.24 16.83 355.29 17.02 359.34 17.23 C360.81 17.3 362.27 17.37 363.73 17.44 C383.82 18.37 383.82 18.37 389.13 21.93 C389.69 22.58 390.25 23.22 390.83 23.89 C391.48 24.61 392.13 25.33 392.8 26.07 C393.1 26.43 393.1 26.43 394.65 28.26 C395.18 28.87 395.72 29.48 396.27 30.11 C397.39 31.38 398.49 32.65 399.59 33.93 C401.21 35.8 402.89 37.61 404.58 39.41 C405.1 39.98 405.63 40.54 406.17 41.12 C407.21 42.23 408.25 43.33 409.29 44.43 C409.78 44.96 410.27 45.48 410.78 46.02 C410.99 46.25 410.99 46.25 412.09 47.4 C412.6 48.02 413.12 48.63 413.65 49.26 C414.06 49.67 414.47 50.08 414.89 50.49 C419.19 55.34 419.13 59.98 418.81 66.1 C418.73 67.4 418.65 68.7 418.56 70 C418.49 71.38 418.42 72.75 418.36 74.13 C418.22 77.04 418.06 79.95 417.89 82.85 C417.65 87.11 417.45 91.37 417.26 95.62 C416.91 103.79 416.51 111.96 416.11 120.12 C415.9 124.35 415.69 128.57 415.49 132.8 C415.09 141.03 414.69 149.25 414.28 157.48 C413.96 164.16 413.63 170.85 413.3 177.54 C413.28 178.02 413.28 178.02 413.16 180.44 C413.07 182.39 412.97 184.34 412.88 186.29 C412.01 203.93 411.15 221.58 410.29 239.23 C409.5 255.3 408.71 271.38 407.93 287.46 C407.05 305.59 406.16 323.73 405.27 341.87 C405.18 343.8 405.08 345.73 404.99 347.67 C404.94 348.62 404.9 349.57 404.85 350.55 C404.52 357.23 404.19 363.92 403.87 370.6 C403.47 378.74 403.07 386.87 402.67 395.01 C402.47 399.15 402.27 403.3 402.07 407.44 C401.88 411.24 401.7 415.04 401.51 418.84 C401.44 420.21 401.37 421.58 401.31 422.95 C401.11 427.05 400.9 431.16 400.65 435.26 C400.61 435.8 400.58 436.34 400.55 436.89 C400.45 438.41 400.34 439.93 400.23 441.46 C400.16 442.31 400.1 443.16 400.04 444.04 C399.37 447.8 397.44 449.81 394.65 452.26 C394.09 452.77 393.53 453.27 392.96 453.79 C391.65 454.95 390.34 456.09 389.01 457.22 C386.2 459.63 383.49 462.14 380.77 464.64 C380.26 465.11 379.75 465.57 379.22 466.05 C376.75 468.31 374.3 470.59 371.9 472.94 C371.68 473.14 371.68 473.14 370.58 474.19 C369.78 474.96 368.99 475.74 368.21 476.54 C364.26 480.26 359.51 480.36 354.31 480.28 C353.13 480.24 351.95 480.18 350.78 480.13 C350.12 480.1 349.46 480.07 348.78 480.05 C346.59 479.95 344.39 479.85 342.2 479.75 C340.61 479.68 339.01 479.61 337.42 479.55 C333.05 479.36 328.68 479.16 324.31 478.96 C320.55 478.8 316.8 478.63 313.05 478.47 C278.06 476.94 243.08 475.32 208.09 473.67 C202.89 473.42 197.69 473.18 192.49 472.94 C191.91 472.91 191.34 472.88 190.75 472.85 C172.11 471.98 153.48 471.15 134.85 470.34 C115.67 469.51 96.5 468.64 77.33 467.72 C74.62 467.59 71.91 467.46 69.2 467.33 C68.93 467.32 68.93 467.32 67.58 467.25 C59.02 466.84 50.45 466.47 41.89 466.12 C33.27 465.77 24.65 465.37 16.04 464.92 C11.37 464.68 6.71 464.46 2.05 464.3 C-2.23 464.15 -6.51 463.94 -10.78 463.68 C-12.32 463.6 -13.86 463.54 -15.4 463.5 C-24.58 463.26 -30.06 461.69 -36.57 454.98 C-38.58 452.8 -40.49 450.56 -42.35 448.26 C-42.79 447.74 -43.23 447.21 -43.68 446.67 C-45.53 444.44 -47.36 442.19 -49.15 439.91 C-51.87 436.55 -54.95 433.57 -58.08 430.61 C-58.48 430.23 -58.88 429.85 -59.29 429.46 C-59.64 429.13 -59.99 428.8 -60.35 428.46 C-63.18 425.09 -63.58 422.23 -63.36 417.91 C-63.34 417.38 -63.32 416.85 -63.29 416.31 C-63.21 414.54 -63.11 412.77 -63.02 411 C-62.96 409.73 -62.9 408.46 -62.84 407.19 C-62.67 403.72 -62.49 400.25 -62.31 396.77 C-62.12 393.06 -61.94 389.34 -61.77 385.63 C-61.46 379.34 -61.15 373.06 -60.83 366.77 C-60.37 357.7 -59.94 348.64 -59.5 339.57 C-59.36 336.63 -59.22 333.7 -59.08 330.76 C-59.05 330.03 -59.01 329.29 -58.97 328.54 C-58.57 320.16 -58.16 311.77 -57.75 303.39 C-57.72 302.61 -57.68 301.84 -57.64 301.04 C-57.48 297.87 -57.33 294.69 -57.17 291.52 C-56.89 285.75 -56.61 279.98 -56.33 274.21 C-56.29 273.37 -56.24 272.53 -56.2 271.66 C-56.12 269.96 -56.04 268.25 -55.95 266.55 C-55.18 250.81 -54.41 235.08 -53.64 219.34 C-52.99 205.9 -52.33 192.45 -51.67 179.01 C-50.9 163.23 -50.13 147.46 -49.36 131.68 C-49.28 130 -49.2 128.31 -49.12 126.63 C-49.07 125.81 -49.03 124.98 -48.99 124.13 C-48.71 118.35 -48.43 112.57 -48.15 106.79 C-47.8 99.78 -47.46 92.76 -47.12 85.74 C-46.94 82.17 -46.77 78.6 -46.59 75.04 C-45.26 47.66 -45.26 47.66 -44.35 34.26 C-43.69 34.26 -43.03 34.26 -42.35 34.26 C-42.26 33.68 -42.16 33.09 -42.06 32.48 C-41.2 29.79 -40.11 28.73 -38.04 26.84 C-37.36 26.21 -36.67 25.57 -35.97 24.92 C-35.25 24.27 -34.53 23.62 -33.79 22.95 C-33.1 22.31 -32.41 21.67 -31.7 21.02 C-27.56 17.22 -23.36 13.51 -19.12 9.83 C-17.67 8.54 -16.3 7.23 -14.95 5.83 C-10.13 1.21 -6.7 -0.28 0 0 Z M-13.35 15.26 C-14.55 16.35 -15.75 17.41 -16.98 18.45 C-20.8 21.75 -24.52 25.15 -28.23 28.58 C-28.8 29.11 -29.37 29.63 -29.96 30.18 C-36.59 36.31 -36.59 36.31 -36.95 39.48 C-36.99 39.79 -36.99 39.79 -37.18 41.37 C-37.44 44.19 -37.63 47.01 -37.76 49.84 C-37.79 50.47 -37.82 51.09 -37.85 51.74 C-37.96 53.83 -38.06 55.92 -38.16 58 C-38.23 59.52 -38.31 61.04 -38.38 62.55 C-38.59 66.71 -38.79 70.87 -38.99 75.03 C-39.21 79.52 -39.43 84 -39.65 88.49 C-40.06 96.77 -40.46 105.06 -40.87 113.34 C-41.24 120.99 -41.61 128.65 -41.99 136.3 C-42.01 136.81 -42.04 137.32 -42.06 137.84 C-42.17 139.91 -42.27 141.97 -42.37 144.03 C-43.31 163.38 -44.26 182.72 -45.2 202.07 C-46.04 219.25 -46.88 236.42 -47.72 253.59 C-47.93 257.99 -48.15 262.38 -48.37 266.78 C-48.39 267.32 -48.42 267.86 -48.45 268.42 C-49.15 282.78 -49.85 297.15 -50.55 311.51 C-50.63 313.06 -50.7 314.6 -50.78 316.15 C-50.83 317.18 -50.88 318.2 -50.93 319.23 C-51.3 326.87 -51.68 334.52 -52.05 342.16 C-52.48 350.86 -52.9 359.56 -53.33 368.26 C-53.54 372.7 -53.76 377.14 -53.98 381.57 C-54.18 385.64 -54.37 389.71 -54.57 393.77 C-54.64 395.24 -54.71 396.7 -54.79 398.17 C-55 402.53 -55.19 406.9 -55.35 411.26 C-55.37 411.54 -55.37 411.54 -55.42 412.92 C-55.48 414.44 -55.52 415.96 -55.56 417.48 C-55.58 418.32 -55.61 419.15 -55.63 420.02 C-55.11 424.26 -52.32 426.67 -49.29 429.45 C-48.09 430.65 -46.89 431.84 -45.68 433.04 C-45.1 433.6 -44.52 434.15 -43.93 434.73 C-42.01 436.6 -40.28 438.54 -38.54 440.58 C-38.05 441.13 -37.56 441.68 -37.05 442.25 C-35.35 444.26 -35.35 444.26 -33.78 446.54 C-31.14 450.08 -28.84 453.16 -24.37 454.15 C-20.78 454.66 -17.18 454.68 -13.56 454.72 C-12.19 454.76 -10.81 454.81 -9.44 454.87 C-6.54 454.98 -3.65 455.07 -0.75 455.14 C3.51 455.25 7.76 455.45 12.01 455.69 C12.7 455.72 13.4 455.76 14.11 455.8 C15.53 455.88 16.95 455.96 18.36 456.03 C22.07 456.23 25.78 456.41 29.49 456.59 C30.25 456.63 31.01 456.67 31.8 456.7 C33.38 456.78 34.95 456.86 36.53 456.93 C40.76 457.14 44.99 457.35 49.22 457.56 C57.46 457.96 65.69 458.36 73.92 458.76 C80.61 459.09 87.3 459.41 94 459.74 C94.95 459.79 95.91 459.84 96.9 459.88 C98.85 459.98 100.8 460.07 102.75 460.17 C120.41 461.03 138.06 461.89 155.72 462.75 C171.81 463.54 187.9 464.32 203.99 465.11 C222.14 466 240.29 466.89 258.44 467.77 C260.37 467.87 262.3 467.96 264.24 468.06 C265.19 468.1 266.14 468.15 267.12 468.2 C273.81 468.52 280.5 468.85 287.19 469.18 C295.33 469.58 303.47 469.97 311.62 470.37 C315.77 470.57 319.91 470.77 324.06 470.98 C327.86 471.16 331.66 471.35 335.46 471.53 C336.83 471.6 338.21 471.66 339.58 471.73 C345.33 472.02 351.09 472.3 356.86 472.41 C357.53 472.42 358.21 472.43 358.91 472.45 C361.95 472.13 363.58 470.5 365.58 468.33 C366.43 467.49 367.27 466.66 368.12 465.82 C368.54 465.39 368.96 464.97 369.39 464.53 C370.95 462.96 372.57 461.49 374.23 460.04 C375.05 459.31 375.86 458.58 376.66 457.84 C378.93 455.75 381.23 453.8 383.7 451.94 C388.67 448.05 393.01 444.51 394.19 438.06 C394.57 434.72 394.69 431.4 394.77 428.05 C394.85 426.53 394.94 425.01 395.03 423.49 C395.26 419.34 395.41 415.19 395.56 411.04 C395.73 406.55 395.97 402.07 396.2 397.58 C396.59 389.82 396.93 382.05 397.25 374.28 C397.58 366.13 397.94 357.98 398.32 349.83 C398.35 349.32 398.37 348.81 398.4 348.29 C398.52 345.7 398.64 343.12 398.77 340.54 C399.64 322.27 400.45 303.99 401.24 285.71 C402 268.01 402.79 250.3 403.61 232.6 C403.64 232.05 403.66 231.51 403.69 230.94 C403.92 226.01 404.15 221.08 404.38 216.15 C405.95 182.52 407.48 148.89 408.95 115.25 C409.1 111.73 409.26 108.21 409.41 104.69 C409.59 100.63 409.77 96.56 409.95 92.5 C410.01 91.04 410.07 89.58 410.14 88.12 C410.35 83.5 410.51 78.88 410.65 74.26 C410.66 73.89 410.66 73.89 410.72 71.99 C410.79 69.67 410.83 67.34 410.87 65.02 C410.9 64.3 410.92 63.59 410.95 62.85 C410.98 59.55 410.93 57.74 409.22 54.84 C407.48 53.1 405.63 51.72 403.65 50.26 C402.49 49.02 401.36 47.75 400.27 46.45 C397.18 42.87 394.03 39.35 390.84 35.85 C388.98 33.8 387.2 31.72 385.5 29.53 C383.65 27.26 383.65 27.26 381.65 26.26 C379.67 26.08 377.71 25.95 375.73 25.86 C375.42 25.84 375.42 25.84 373.86 25.76 C371.78 25.66 369.7 25.56 367.61 25.46 C366.11 25.39 364.61 25.31 363.11 25.24 C358.97 25.03 354.83 24.83 350.69 24.63 C346.23 24.41 341.78 24.19 337.32 23.97 C329.08 23.56 320.84 23.15 312.59 22.75 C304.97 22.38 297.35 22.01 289.72 21.63 C289.22 21.61 288.71 21.58 288.19 21.55 C286.14 21.45 284.09 21.35 282.03 21.25 C262.75 20.3 243.48 19.36 224.2 18.42 C207.1 17.58 190.01 16.74 172.92 15.9 C153.7 14.95 134.49 14.01 115.28 13.07 C113.22 12.97 111.17 12.87 109.11 12.76 C108.6 12.74 108.1 12.72 107.58 12.69 C99.98 12.32 92.37 11.94 84.77 11.57 C76.1 11.14 67.43 10.71 58.77 10.29 C54.35 10.08 49.93 9.86 45.52 9.64 C37.14 9.23 28.76 8.83 20.38 8.5 C16.77 8.36 13.17 8.19 9.57 8 C7.16 7.88 4.74 7.8 2.33 7.72 C1.52 7.67 0.72 7.62 -0.11 7.57 C-6.69 7.44 -9.23 10.5 -13.35 15.26 Z" transform="translate(73.35453224182129,12.735475540161133)"/>
  <path fill="#a2543c" d="M0 0 C4.99 -0.33 9.24 1.25 13.28 4.2 C13.88 5.77 13.88 5.77 14.28 7.2 C14.57 7.2 14.57 7.2 16.03 7.23 C18.68 7.28 21.32 7.37 23.96 7.45 C24.42 7.46 24.42 7.46 26.73 7.49 C34.7 7.78 34.7 7.78 38.13 11.15 C40.29 13.13 43.03 14.08 45.71 15.2 C46.02 15.33 46.02 15.33 47.55 15.99 C51.22 17.51 54.84 18.66 58.7 19.58 C66.44 21.46 71.1 24.72 76.93 30.04 C79.18 31.97 81.64 33.59 84.09 35.26 C88.24 38.16 91.1 41.18 93.95 45.41 C95.27 47.19 96.49 48.23 98.28 49.51 C103.92 53.87 106.78 61.71 109.28 68.2 C107.5 68.51 107.5 68.51 105.28 68.2 C103.89 66.55 102.82 65.08 101.71 63.26 C98.7 58.4 98.7 58.4 96.56 57.38 C96.35 57.35 96.35 57.35 95.28 57.2 C104.11 72.56 104.11 72.56 108.62 73.89 C112.56 75.83 114.01 78.86 116.15 82.57 C116.57 83.25 116.98 83.92 117.41 84.61 C120.36 89.6 120.36 89.6 119.99 92.32 C119.28 94.2 119.28 94.2 117.53 95.89 C116.28 98.2 116.28 98.2 116.61 100.21 C118.05 104.74 119.93 108.64 122.7 112.5 C123.58 115.1 122.33 116.72 121.28 119.2 C120.87 121.78 120.82 124.39 120.71 127 C120.48 131 120.48 131 118.28 133.2 C115.65 133.32 115.65 133.32 113.28 133.2 C113.49 133.71 113.71 134.22 113.93 134.74 C115.71 139.12 116.63 142.47 116.28 147.2 C115.62 147.53 114.96 147.86 114.28 148.2 C113.75 149.94 113.75 149.94 113.34 152.07 C112.47 156.02 112.47 156.02 110.65 157.7 C109.28 159.2 109.28 159.2 109.23 160.9 C109.26 161.58 109.3 162.25 109.34 162.95 C109.52 167.04 108.42 168.99 106.22 172.34 C104.78 175.17 104.74 177.95 104.65 181.09 C104.28 183.2 104.28 183.2 102.76 184.72 C100.41 188.65 100.99 192.54 101.12 197.02 C101.15 198.51 101.17 200 101.19 201.48 C101.24 205.13 101.33 208.77 101.41 212.41 C101.79 228.42 100.94 243.71 94.41 258.59 C92.92 262.02 91.64 265.51 90.34 269.01 C89.82 270.41 89.29 271.8 88.77 273.2 C87.86 275.61 86.98 278.02 86.13 280.45 C83.68 287.31 80.59 293.74 77.21 300.2 C77 300.61 77 300.61 75.93 302.67 C74.15 306 72.45 309.14 69.97 312.01 C68.28 314.2 68.28 314.2 67.8 316.3 C68.48 318.99 69.8 319.87 71.96 321.57 C75.54 324.53 78.5 327.49 81.28 331.2 C81.65 331.67 82.02 332.14 82.4 332.62 C85.89 337.37 87.26 342.38 87.37 348.25 C87.56 355.87 88.89 360.08 93.62 366.07 C97.33 370.84 97.47 375.25 97.05 381.15 C97.28 383.2 97.28 383.2 98.52 384.84 C100.41 386.3 102.23 387.27 104.4 388.26 C108.17 389.98 108.17 389.98 109.28 392.2 C106.17 392.23 103.07 392.25 99.96 392.26 C99.08 392.27 98.2 392.28 97.29 392.29 C96.45 392.29 95.6 392.29 94.73 392.3 C94.34 392.3 94.34 392.3 92.36 392.31 C90.45 392.21 89.04 391.91 87.28 391.2 C87.43 390.77 87.59 390.35 87.75 389.91 C89.83 383.23 89.05 377.03 88.28 370.2 C84.54 371.44 82.61 372.51 80.46 375.82 C80.26 376.14 80.26 376.14 79.2 377.74 C78.89 378.22 78.59 378.7 78.28 379.2 C79.93 378.87 81.58 378.54 83.28 378.2 C84.27 379.52 85.26 380.84 86.28 382.2 C84.96 385.17 83.64 388.14 82.28 391.2 C80.63 391.2 78.98 391.2 77.28 391.2 C77.94 388.89 78.6 386.58 79.28 384.2 C76.51 385.74 74.3 387.05 72.21 389.45 C71.9 389.74 71.9 389.74 70.28 391.2 C68.03 390.95 68.03 390.95 66.28 390.2 C66.28 389.54 66.28 388.88 66.28 388.2 C64.96 388.2 63.64 388.2 62.28 388.2 C62.28 388.86 62.28 389.52 62.28 390.2 C59.31 390.2 56.34 390.2 53.28 390.2 C52.95 389.21 52.62 388.22 52.28 387.2 C52.88 386.88 53.48 386.57 54.11 386.25 C63.03 381.47 63.03 381.47 65.28 378.2 C65.12 374.81 64.69 373.62 62.28 371.2 C61.68 366.16 62.31 361.15 63.28 356.2 C63.28 355.54 63.28 354.88 63.28 354.2 C62.29 354.2 61.3 354.2 60.28 354.2 C60.29 354.57 60.29 354.57 60.34 356.45 C59.28 359.2 59.28 359.2 57.59 360.14 C56.05 360.75 54.5 361.36 52.96 361.96 C49.32 363.64 46.32 365.93 43.17 368.38 C40.32 370.58 37.65 371.87 34.28 373.2 C33.95 373.86 33.62 374.52 33.28 375.2 C41.26 374.4 45.74 371.98 51.28 366.2 C55.16 367.95 55.16 367.95 56.21 370.2 C57.68 372.95 59.39 373.29 62.28 374.2 C60.98 378.08 59.69 380.71 56.28 383.2 C53.9 383.52 51.66 383.44 49.28 383.2 C49.05 382.58 48.82 381.96 48.59 381.32 C46.9 378.59 45.28 378.15 42.28 377.2 C41.95 378.85 41.62 380.5 41.28 382.2 C43.26 382.86 45.24 383.52 47.28 384.2 C46.95 385.85 46.62 387.5 46.28 389.2 C43.64 389.2 41 389.2 38.28 389.2 C37.82 387.7 37.37 386.2 36.91 384.71 C36.28 383.2 36.28 383.2 34.28 381.2 C31.82 380.38 29.26 379.98 26.71 379.51 C25.99 379.38 25.27 379.25 24.52 379.11 C17.07 377.84 11.26 378.23 4.28 381.2 C2.01 381.76 -0.26 382.26 -2.54 382.73 C-3.26 382.89 -3.98 383.04 -4.72 383.2 C-5.45 383.32 -6.18 383.44 -6.94 383.57 C-7.53 383.78 -8.12 383.99 -8.72 384.2 C-9.33 385.74 -9.33 385.74 -9.72 387.2 C-12.87 387.13 -16.02 387.04 -19.16 386.94 C-20.23 386.9 -21.3 386.88 -22.37 386.85 C-29.54 386.69 -36.03 386.41 -41.66 381.51 C-42.01 381.08 -42.36 380.65 -42.72 380.2 C-40.72 378.2 -40.72 378.2 -39.03 378.16 C-38.37 378.25 -37.71 378.34 -37.03 378.44 C-36.31 378.54 -35.6 378.63 -34.86 378.73 C-34.11 378.85 -33.37 378.96 -32.6 379.07 C-31.84 379.18 -31.09 379.28 -30.31 379.39 C-28.45 379.65 -26.58 379.92 -24.72 380.2 C-23.73 378.22 -22.74 376.24 -21.72 374.2 C-18.53 374.56 -16.55 375.17 -14.16 377.26 C-12.35 378.85 -11.92 379.18 -9.41 379.45 C-8.85 379.37 -8.3 379.28 -7.72 379.2 C-7.79 376.89 -7.79 376.89 -8.72 374.2 C-11.47 372.27 -14.73 371.45 -17.95 370.63 C-23.21 369.27 -27.38 367.37 -31.91 364.45 C-36.74 361.35 -41.62 358.57 -46.79 356.07 C-47.42 355.75 -48.05 355.44 -48.7 355.11 C-53.13 353.02 -53.13 353.02 -56.03 353.89 C-57.72 355.2 -57.72 355.2 -59.72 357.2 C-61.16 357.36 -61.16 357.36 -62.72 357.26 C-64.95 357.13 -65.64 357.16 -67.72 358.2 C-68.35 360.26 -68.35 360.26 -68.72 362.2 C-71.7 362.11 -73.1 361.77 -75.32 359.71 C-81.77 352.3 -81.77 352.3 -81.66 347.57 C-80.72 345.2 -80.72 345.2 -78.66 343.51 C-75.04 343.13 -74.42 343.85 -71.6 346.01 C-70.94 346.58 -70.27 347.14 -69.59 347.72 C-67.91 349.05 -66.78 349.71 -64.72 350.2 C-66.8 345.03 -70.04 341.77 -74.29 338.32 C-74.77 337.93 -75.25 337.54 -75.75 337.13 C-78.04 335.33 -79.89 334.02 -82.72 333.2 C-83.05 335.18 -83.38 337.16 -83.72 339.2 C-87.18 340 -89.79 340.56 -93.16 339.26 C-95.55 336.11 -95.05 333.02 -94.72 329.2 C-92.91 328.51 -92.91 328.51 -90.72 328.2 C-89.16 329.57 -89.16 329.57 -87.72 331.2 C-86.04 331.89 -86.04 331.89 -84.72 332.2 C-86.56 328.72 -88.27 326.58 -91.4 324.22 C-95.57 321 -98.36 317.49 -100.83 312.85 C-101.72 311.2 -101.72 311.2 -102.83 309.66 C-104.14 307.52 -103.85 305.64 -103.72 303.2 C-100.17 301.07 -96.76 300.63 -92.72 300.2 C-92.72 299.54 -92.72 298.88 -92.72 298.2 C-100.7 299.17 -106.13 301.53 -111.33 307.88 C-113.69 311.82 -114.16 315.66 -113.72 320.2 C-112.86 322.68 -111.58 324.34 -109.72 326.2 C-109.49 327.38 -109.31 328.57 -109.16 329.76 C-109.08 330.4 -108.99 331.04 -108.91 331.7 C-108.85 332.2 -108.79 332.69 -108.72 333.2 C-107.73 333.53 -106.74 333.86 -105.72 334.2 C-105.58 333.27 -105.43 332.34 -105.29 331.39 C-104.95 329.23 -104.46 327.26 -103.72 325.2 C-104.67 324.95 -105.62 324.7 -106.6 324.45 C-108.9 323.67 -109.6 323.35 -111.16 321.39 C-111.88 318.59 -111.64 316.94 -110.72 314.2 C-109.35 312.39 -109.35 312.39 -107.72 311.2 C-106.73 311.2 -105.74 311.2 -104.72 311.2 C-100.37 318.16 -99.1 323.86 -98.86 332 C-98.59 339.2 -98.59 339.2 -96.77 341.3 C-95.52 342.43 -94.23 343.47 -92.91 344.51 C-89.76 347.15 -87.35 349.24 -85.79 353.14 C-83.43 358.69 -78.73 362.15 -74.21 365.95 C-72.78 367.15 -71.38 368.37 -69.98 369.59 C-64.79 374.05 -59.48 377.76 -53.43 380.99 C-52.17 381.68 -50.94 382.43 -49.72 383.2 C-49.72 383.86 -49.72 384.52 -49.72 385.2 C-52.77 385.18 -55.81 385.13 -58.85 385.05 C-59.88 385.02 -60.91 385.01 -61.95 385 C-71.64 384.94 -71.64 384.94 -74.69 381.88 C-75.39 381 -76.06 380.11 -76.72 379.2 C-77.39 378.56 -78.06 377.91 -78.74 377.25 C-79.33 376.68 -79.93 376.1 -80.54 375.51 C-80.84 375.22 -80.84 375.22 -82.37 373.75 C-83.72 372.2 -83.72 372.2 -83.72 370.2 C-84.06 370.09 -84.06 370.09 -85.79 369.51 C-91.04 367.4 -95.43 363.72 -99.28 359.63 C-100.77 358.15 -102.36 356.84 -103.97 355.5 C-108.64 351.6 -111.63 347.65 -114.53 342.3 C-115.72 340.2 -115.72 340.2 -117.72 338.2 C-120.72 338.2 -120.72 338.2 -121.84 339.24 C-124.58 343.37 -125.7 347.1 -126.29 352.01 C-126.33 352.36 -126.33 352.36 -126.55 354.14 C-127.04 359.64 -126.32 362.89 -123.18 367.5 C-121.76 369.15 -120.29 370.69 -118.72 372.2 C-118.06 371.54 -117.4 370.88 -116.72 370.2 C-117 369.86 -117.28 369.52 -117.56 369.17 C-120.54 365.19 -122.06 361.25 -121.72 356.2 C-121.06 355.54 -120.4 354.88 -119.72 354.2 C-120.26 350.66 -120.26 350.66 -121.72 349.2 C-121.76 347.53 -121.77 345.87 -121.72 344.2 C-119.87 344.43 -119.87 344.43 -117.72 345.2 C-116.41 347.16 -116.41 347.16 -115.29 349.57 C-113.24 353.57 -111.83 355.44 -107.72 357.2 C-108.6 361.07 -108.6 361.07 -109.72 362.2 C-111.39 362.24 -113.06 362.24 -114.72 362.2 C-113.73 364.51 -112.74 366.82 -111.72 369.2 C-110.73 369.2 -109.74 369.2 -108.72 369.2 C-108.06 366.89 -107.4 364.58 -106.72 362.2 C-103.39 361.82 -102.08 361.93 -99.35 363.98 C-98.47 364.72 -97.6 365.46 -96.72 366.2 C-95.92 366.83 -95.11 367.47 -94.29 368.09 C-83.6 376.45 -83.6 376.45 -79.72 381.2 C-79.72 381.86 -79.72 382.52 -79.72 383.2 C-82.36 383.2 -85 383.2 -87.72 383.2 C-87.94 382.63 -88.16 382.06 -88.39 381.47 C-90.14 378.48 -92.32 376.89 -95.1 374.89 C-95.34 374.7 -95.34 374.7 -96.56 373.76 C-100.12 371.16 -100.12 371.16 -102.91 371.33 C-104.74 372.21 -105.93 373.01 -107.35 374.45 C-107.75 374.85 -108.16 375.24 -108.57 375.65 C-110.08 377.68 -110.82 379.85 -111.72 382.2 C-116.88 382.09 -122.04 381.93 -127.2 381.73 C-128.95 381.67 -130.71 381.62 -132.46 381.58 C-134.99 381.53 -137.52 381.43 -140.04 381.32 C-140.82 381.31 -141.6 381.31 -142.4 381.3 C-145.8 381.12 -147.93 380.86 -150.6 378.64 C-154.72 373.98 -154.72 373.98 -154.72 371.2 C-152.12 370.02 -149.52 368.86 -146.91 367.7 C-146.54 367.53 -146.54 367.53 -144.67 366.69 C-143.96 366.37 -143.25 366.06 -142.52 365.73 C-142.19 365.58 -142.19 365.58 -140.53 364.84 C-138.72 364.2 -138.72 364.2 -135.72 364.2 C-135.81 363.81 -135.81 363.81 -136.22 361.82 C-137.69 352.51 -136.72 344.81 -131.78 336.64 C-129.99 334.23 -127.94 332.61 -125.54 330.82 C-123.22 328.96 -122.28 327.72 -121.79 324.76 C-121.61 322.34 -121.82 320.8 -122.41 318.39 C-123.5 313.04 -120.22 307.55 -117.43 303.18 C-111.55 295.65 -102.62 291.78 -93.35 290.57 C-92.14 290.45 -90.93 290.32 -89.72 290.2 C-89.53 284.45 -90.05 279.1 -91.1 273.45 C-91.22 272.71 -91.35 271.97 -91.48 271.2 C-92.13 267.57 -92.78 264.41 -94.72 261.2 C-95.14 261.27 -95.55 261.34 -95.97 261.41 C-101.08 261.89 -103.7 260.24 -107.64 257.15 C-111.41 253.63 -114.09 249.45 -116.85 245.14 C-117 244.9 -117 244.9 -117.77 243.72 C-128.17 227.71 -135.94 210.17 -132.23 190.6 C-131.86 189.14 -131.49 187.68 -131.11 186.23 C-130.13 181.1 -131.38 176.73 -133.72 172.2 C-133.9 171.04 -134.04 169.87 -134.16 168.7 C-134.46 166.05 -134.63 165.31 -136.35 163.14 C-137.72 161.2 -137.72 161.2 -137.62 159.77 C-137.29 158.2 -137.29 158.2 -136.85 156.76 C-136.72 155.2 -136.72 155.2 -137.73 153.32 C-139.29 149.99 -138.22 147.14 -137.52 143.64 C-137.59 142.83 -137.65 142.03 -137.72 141.2 C-138.83 140.28 -138.83 140.28 -140.22 139.39 C-141.62 138.41 -141.62 138.41 -142.72 137.2 C-143.17 134.48 -142.79 131.91 -142.41 129.2 C-141.42 121.14 -141.42 121.14 -143.72 117.2 C-143.99 114.73 -143.99 114.73 -143.97 112.14 C-143.98 111.28 -143.98 110.42 -143.99 109.54 C-143.71 107.08 -143.13 106.16 -141.72 104.2 C-142.02 101.83 -142.4 99.84 -143.47 97.7 C-143.82 95.63 -143.05 94.43 -141.96 92.7 C-140.72 91.2 -140.72 91.2 -138.7 89.45 C-136.36 87.41 -134.52 85.73 -132.72 83.2 C-132.63 80.58 -133.09 78.34 -133.59 75.77 C-133.82 71.22 -131.18 68.01 -128.62 64.47 C-127.71 63.19 -126.91 61.87 -126.11 60.52 C-122.11 53.97 -117.86 50.93 -110.72 48.2 C-110.82 47.8 -110.82 47.8 -111.29 45.8 C-111.72 43.2 -111.72 43.2 -110.72 41.51 C-107.91 39.67 -104.97 38.96 -101.72 38.2 C-101.47 38.62 -101.21 39.04 -100.95 39.48 C-100.61 40.02 -100.26 40.57 -99.91 41.14 C-99.57 41.68 -99.24 42.23 -98.89 42.79 C-97.57 44.38 -96.71 44.75 -94.72 45.2 C-94.77 44.72 -94.77 44.72 -95.04 42.32 C-95.05 36.99 -92.36 32.69 -89.72 28.2 C-89.45 27.72 -89.18 27.24 -88.9 26.74 C-86.26 22.36 -82.91 19.75 -78.72 16.89 C-78.11 16.45 -77.49 16 -76.86 15.55 C-73.8 13.41 -71.42 11.96 -67.72 11.2 C-67.35 12.89 -67.35 12.89 -67.72 15.2 C-69.09 16.58 -70.58 17.72 -72.12 18.9 C-74.43 20.77 -76.02 22.77 -77.72 25.2 C-77.72 25.86 -77.72 26.52 -77.72 27.2 C-73.76 25.58 -71.18 22.94 -68.16 20.01 C-62.74 14.89 -57.11 11 -50.72 7.2 C-49.57 6.42 -48.42 5.63 -47.29 4.82 C-43.17 2.09 -38.6 1.49 -33.72 2.2 C-33.1 2.71 -32.49 3.23 -31.85 3.76 C-28.33 6.14 -24.75 4.87 -20.72 4.2 C-19.47 4.05 -18.22 3.91 -16.97 3.76 C-14.81 3.45 -13.29 3.03 -11.22 2.2 C-7.52 0.72 -3.92 0.45 0 0 Z M-38.53 6.58 C-43.37 8.32 -45.91 9.86 -48.72 14.2 C-48.39 14.36 -48.39 14.36 -46.72 15.2 C-44.78 14.53 -43.01 13.81 -41.16 12.95 C-40.65 12.73 -40.15 12.51 -39.62 12.29 C-35.93 10.61 -35.93 10.61 -34.88 8.53 C-34.83 8.09 -34.78 7.65 -34.72 7.2 C-36.72 6.2 -36.72 6.2 -38.53 6.58 Z M-1.72 7.2 C-1.39 8.19 -1.06 9.18 -0.72 10.2 C2.25 10.2 5.22 10.2 8.28 10.2 C7.95 9.21 7.62 8.22 7.28 7.2 C4.31 7.2 1.34 7.2 -1.72 7.2 Z M64.28 28.2 C64.28 29.19 64.28 30.18 64.28 31.2 C65.27 31.53 66.26 31.86 67.28 32.2 C67.61 31.21 67.94 30.22 68.28 29.2 C66.96 28.87 65.64 28.54 64.28 28.2 Z M81.28 39.2 C81.28 42.2 81.28 42.2 82.59 43.89 C84.28 45.2 84.28 45.2 87.28 45.2 C86.23 42.58 85.63 41.41 83.15 39.95 C82.84 39.83 82.84 39.83 81.28 39.2 Z M54.28 48.2 C54.61 49.19 54.94 50.18 55.28 51.2 C56.93 51.53 58.58 51.86 60.28 52.2 C60.28 51.21 60.28 50.22 60.28 49.2 C59.29 49.03 59.29 49.03 54.28 48.2 Z M33.28 49.2 C33.28 49.86 33.28 50.52 33.28 51.2 C34.27 51.2 35.26 51.2 36.28 51.2 C36.28 50.54 36.28 49.88 36.28 49.2 C35.29 49.2 34.3 49.2 33.28 49.2 Z M-124.72 64.2 C-124.39 65.19 -124.06 66.18 -123.72 67.2 C-120.4 65.72 -117.25 63.85 -114.72 61.2 C-114.72 60.54 -114.72 59.88 -114.72 59.2 C-111.75 58.54 -108.78 57.88 -105.72 57.2 C-105.72 56.21 -105.72 55.22 -105.72 54.2 C-113.45 53.01 -119.83 58.67 -124.72 64.2 Z M-28.72 64.2 C-28.72 65.19 -28.72 66.18 -28.72 67.2 C-28.06 67.2 -27.4 67.2 -26.72 67.2 C-27.05 66.21 -27.38 65.22 -27.72 64.2 C-28.05 64.2 -28.38 64.2 -28.72 64.2 Z M-23.72 65.2 C-23.72 66.19 -23.72 67.18 -23.72 68.2 C-22.07 68.2 -20.42 68.2 -18.72 68.2 C-18.72 67.54 -18.72 66.88 -18.72 66.2 C-20.37 65.87 -22.02 65.54 -23.72 65.2 Z M-66.72 76.2 C-66.39 77.19 -66.06 78.18 -65.72 79.2 C-65.06 79.2 -64.4 79.2 -63.72 79.2 C-63.72 78.21 -63.72 77.22 -63.72 76.2 C-64.71 76.2 -65.7 76.2 -66.72 76.2 Z M65.28 79.2 C65.28 80.19 65.28 81.18 65.28 82.2 C65.94 82.2 66.6 82.2 67.28 82.2 C67.28 81.21 67.28 80.22 67.28 79.2 C66.62 79.2 65.96 79.2 65.28 79.2 Z M-57.72 86.2 C-57.27 88.73 -56.79 90.11 -55.16 92.14 C-53.72 94.2 -53.72 94.2 -53.22 96.64 C-53.94 100.33 -55.98 101.79 -58.72 104.2 C-59.67 105.13 -60.6 106.07 -61.54 107.01 C-62.26 107.74 -62.99 108.47 -63.72 109.2 C-63.23 109.65 -62.73 110.11 -62.22 110.57 C-60.72 112.2 -60.72 112.2 -60.72 114.2 C-61.34 114.45 -61.95 114.69 -62.58 114.95 C-65.12 116.43 -65.75 117.56 -66.97 120.2 C-67.31 120.9 -67.64 121.6 -67.99 122.32 C-68.72 124.2 -68.72 124.2 -68.72 126.2 C-68.39 126.36 -68.39 126.36 -66.72 127.2 C-66.89 128.85 -66.89 128.85 -67.72 137.2 C-66.73 137.86 -65.74 138.52 -64.72 139.2 C-71.21 149.82 -71.21 149.82 -74.91 153.95 C-82.4 162.38 -83.73 171.32 -84.51 182.27 C-84.87 187.18 -85.31 192.09 -86.25 196.93 C-86.92 200.84 -86.79 204.74 -86.72 208.7 C-86.64 213.68 -86.73 218.31 -87.72 223.2 C-92.1 219.55 -93.83 216.06 -95.54 210.7 C-99.12 200.39 -105.43 186.18 -115.25 180.29 C-117.04 179.73 -117.91 179.68 -119.72 180.2 C-123.35 182.49 -126.63 184.92 -127.72 189.2 C-127.95 192.13 -127.91 195.07 -127.91 198.01 C-127.92 198.81 -127.93 199.6 -127.95 200.42 C-127.96 205.17 -127.44 208.77 -125.72 213.2 C-125.43 214.57 -125.16 215.94 -124.91 217.32 C-122.67 227.53 -118.15 235.75 -111.71 243.89 C-110.73 245.18 -109.87 246.51 -109 247.89 C-105.05 253.86 -105.05 253.86 -101.13 254.86 C-98.46 254.95 -96.29 254.93 -93.72 254.2 C-92.04 252.35 -91.74 251.52 -91.6 249.01 C-91.64 248.41 -91.68 247.82 -91.72 247.2 C-90.28 247.52 -90.28 247.52 -88.72 248.2 C-88.09 249.45 -88.09 249.45 -87.73 251.05 C-87.59 251.65 -87.44 252.24 -87.29 252.86 C-87.15 253.51 -87 254.16 -86.85 254.82 C-86.51 256.2 -86.16 257.57 -85.81 258.95 C-85.63 259.65 -85.46 260.36 -85.27 261.09 C-82.76 270.72 -79.53 279.3 -74.18 287.71 C-72.87 289.95 -72.17 291.67 -71.72 294.2 C-75.7 290.66 -78.29 286.92 -80.72 282.2 C-81.38 282.2 -82.04 282.2 -82.72 282.2 C-82.79 289.2 -82.78 296.2 -82.72 303.2 C-82.72 304.08 -82.71 304.96 -82.71 305.86 C-82.68 308.29 -82.61 310.71 -82.54 313.14 C-82.53 313.5 -82.53 313.5 -82.52 315.34 C-82.32 320.06 -81.14 322.64 -77.98 326.17 C-76.72 327.2 -76.72 327.2 -74.72 327.2 C-74.61 327.65 -74.5 328.09 -74.39 328.56 C-73.59 330.52 -72.76 331.22 -71.1 332.5 C-70.56 332.92 -70.02 333.34 -69.47 333.76 C-69.18 333.98 -69.18 333.98 -67.72 335.07 C-67.43 335.3 -67.43 335.3 -65.92 336.44 C-62.16 339.24 -58.38 341.71 -54.21 343.87 C-51.56 345.28 -49.02 346.82 -46.46 348.39 C-35.44 355.14 -24.11 360.86 -12.1 365.64 C-10.78 366.18 -9.47 366.77 -8.18 367.36 C-1.76 370.21 4.32 371.16 11.28 371.2 C11.84 371.2 12.41 371.21 13 371.21 C24 371.16 24 371.16 27.46 368.14 C30.13 364.61 31.46 359.98 31.17 355.57 C30.9 354.2 30.9 354.2 30.28 352.2 C28 353.29 25.81 354.46 23.65 355.76 C19.28 358.41 16.35 358.9 11.28 358.2 C3.72 356.07 -3.5 352.48 -10.58 349.12 C-12.72 348.2 -12.72 348.2 -14.72 348.2 C-14.72 347.54 -14.72 346.88 -14.72 346.2 C-16.7 345.54 -18.68 344.88 -20.72 344.2 C-20.72 343.54 -20.72 342.88 -20.72 342.2 C-22.37 341.87 -24.02 341.54 -25.72 341.2 C-25.72 340.54 -25.72 339.88 -25.72 339.2 C-27.56 338.01 -27.56 338.01 -30.1 336.64 C-35.6 333.52 -39.99 329.6 -44.56 325.28 C-46.27 323.69 -48.06 322.2 -49.85 320.7 C-61.53 310.52 -61.53 310.52 -62.72 305.2 C-61.73 304.87 -60.74 304.54 -59.72 304.2 C-59.53 304.75 -59.33 305.29 -59.13 305.86 C-57.09 309.24 -54.27 311.26 -51.16 313.64 C-50.53 314.13 -49.89 314.62 -49.24 315.12 C-45.29 318.14 -41.33 320.78 -36.9 323.04 C-34.85 324.13 -32.93 325.34 -31 326.62 C-23.6 331.52 -15.81 335.56 -7.72 339.2 C-7.18 339.44 -6.65 339.69 -6.09 339.94 C6.22 345.27 23.64 345.56 36.28 341.2 C38.3 340.1 39.95 338.8 41.65 337.26 C41.86 337.09 41.86 337.09 42.9 336.21 C44.05 335.23 45.16 334.22 46.28 333.2 C46.87 332.66 47.46 332.12 48.07 331.57 C49.28 330.2 49.28 330.2 49.28 328.2 C49.94 328.2 50.6 328.2 51.28 328.2 C52.47 326.65 52.47 326.65 53.84 324.45 C56.29 320.64 58.89 317.04 61.65 313.45 C64.81 309.3 67.77 305.07 70.53 300.64 C70.83 300.16 71.14 299.67 71.45 299.18 C77.29 289.6 80.94 278.99 84.62 268.45 C85.4 266.2 86.2 263.96 86.99 261.71 C94.2 241.28 97.18 222.21 94.43 200.48 C94.24 197.7 94.45 195.02 94.71 192.26 C96.17 176.78 96.17 176.78 94.3 173.47 C91.48 170.52 88.11 168.38 84 167.98 C75.67 168.48 68.19 171.01 60.4 173.85 C59.52 174.16 58.65 174.48 57.74 174.8 C56.95 175.09 56.17 175.39 55.36 175.69 C53.16 176.23 52.24 176.29 50.28 175.2 C49.49 173.23 49.18 171.82 49.5 169.72 C51.49 165.83 57.81 164.02 61.83 162.68 C69.26 160.47 77.57 158.74 85.28 160.2 C87.51 161.57 89.12 162.96 90.88 164.89 C92.28 166.2 92.28 166.2 95.28 166.2 C93.87 129.79 93.87 129.79 86.28 122.2 C85.88 122.05 85.88 122.05 83.84 121.32 C81.28 120.2 81.28 120.2 79.96 118.2 C78.04 115.92 77.46 115.84 74.65 115.26 C67.51 113.71 62.06 110.92 58.03 104.7 C57.8 104.31 57.8 104.31 56.63 102.36 C54.84 99.5 52.76 97.46 50.28 95.2 C49.29 95.53 48.3 95.86 47.28 96.2 C48.56 100.55 50.69 102.84 54.04 105.87 C55.28 107.2 55.28 107.2 55.28 109.2 C52.95 108.13 50.86 106.93 48.78 105.45 C40.1 99.61 28.99 93.75 18.28 94.2 C18.4 96.01 18.4 96.01 19.28 98.2 C24.15 101.32 29.74 102.66 35.28 104.2 C35.28 104.86 35.28 105.52 35.28 106.2 C25.97 107.19 20.19 104.85 12.28 100.2 C11.89 99.99 11.89 99.99 9.95 98.93 C5.56 96.43 2.62 93.61 -0.4 89.55 C-0.84 89.11 -1.27 88.66 -1.72 88.2 C-2.71 88.2 -3.7 88.2 -4.72 88.2 C-4.27 93.19 -1.76 96.32 1.28 100.2 C-0.46 100.9 -0.46 100.9 -2.72 101.2 C-4.73 99.91 -4.73 99.91 -6.85 98.01 C-10.76 94.68 -14.56 92.79 -19.46 91.12 C-21.72 90.2 -21.72 90.2 -23.83 88.59 C-25.72 87.2 -25.72 87.2 -28.72 87.2 C-28.33 90.75 -26.82 92.65 -24.33 95.04 C-21.89 96.8 -19.26 97.65 -16.39 98.52 C-14.72 99.2 -14.72 99.2 -13.72 101.2 C-32.17 103.24 -32.17 103.24 -40.72 98.2 C-41.52 97.74 -42.32 97.28 -43.15 96.8 C-47.44 94.14 -50.77 91.47 -53.65 87.3 C-54.01 86.94 -54.36 86.57 -54.72 86.2 C-55.71 86.2 -56.7 86.2 -57.72 86.2 Z M110.28 88.2 C110.28 89.85 110.28 91.5 110.28 93.2 C111.6 93.2 112.92 93.2 114.28 93.2 C113.96 91.26 113.96 91.26 113.28 89.2 C111.71 88.45 111.71 88.45 110.28 88.2 Z M-36.72 93.2 C-36.06 94.52 -35.4 95.84 -34.72 97.2 C-34.06 97.2 -33.4 97.2 -32.72 97.2 C-33.05 95.88 -33.38 94.56 -33.72 93.2 C-34.71 93.2 -35.7 93.2 -36.72 93.2 Z M-89.72 95.2 C-92.14 97.78 -92.72 98.61 -92.72 102.2 C-89.72 102.2 -89.72 102.2 -87.72 100.32 C-87.06 99.62 -86.4 98.92 -85.72 98.2 C-83.97 96.95 -83.97 96.95 -82.72 96.2 C-83.05 95.21 -83.38 94.22 -83.72 93.2 C-85.93 93.2 -87.77 94.27 -89.72 95.2 Z M-138.72 96.2 C-138.72 97.19 -138.72 98.18 -138.72 99.2 C-137.73 99.2 -136.74 99.2 -135.72 99.2 C-135.72 98.21 -135.72 97.22 -135.72 96.2 C-136.71 96.2 -137.7 96.2 -138.72 96.2 Z M-101.72 97.2 C-102.05 98.19 -102.38 99.18 -102.72 100.2 C-102.06 100.2 -101.4 100.2 -100.72 100.2 C-101.05 99.21 -101.38 98.22 -101.72 97.2 Z M-81.72 103.2 C-82.85 104.7 -82.85 104.7 -83.72 106.2 C-83.39 106.36 -83.39 106.36 -81.72 107.2 C-81.06 106.87 -80.4 106.54 -79.72 106.2 C-79.72 105.21 -79.72 104.22 -79.72 103.2 C-80.38 103.2 -81.04 103.2 -81.72 103.2 Z M69.28 103.2 C68.62 103.86 67.96 104.52 67.28 105.2 C68.4 106.21 69.52 107.2 70.65 108.2 C71.28 108.76 71.91 109.31 72.55 109.89 C74.28 111.2 74.28 111.2 76.28 111.2 C75.94 108.05 75.7 106.59 73.34 104.39 C71.28 103.2 71.28 103.2 69.28 103.2 Z M-138.72 110.2 C-138.89 110.86 -138.89 110.86 -139.72 114.2 C-138.73 114.2 -137.74 114.2 -136.72 114.2 C-137.05 112.88 -137.38 111.56 -137.72 110.2 C-138.05 110.2 -138.38 110.2 -138.72 110.2 Z M113.28 112.2 C113.61 113.85 113.94 115.5 114.28 117.2 C115.27 117.2 116.26 117.2 117.28 117.2 C117.11 116.37 117.11 116.37 116.28 112.2 C115.29 112.2 114.3 112.2 113.28 112.2 Z M-85.72 128.2 C-85.72 129.52 -85.72 130.84 -85.72 132.2 C-85.06 132.2 -84.4 132.2 -83.72 132.2 C-83.39 130.88 -83.06 129.56 -82.72 128.2 C-83.71 128.2 -84.7 128.2 -85.72 128.2 Z M62.28 325.2 C63.4 328.57 64.97 329.7 67.9 331.45 C71.12 333.61 71.12 333.61 71.8 336.16 C71.87 339.92 71.41 343.01 69.28 346.2 C71.26 346.86 73.24 347.52 75.28 348.2 C75.07 348.6 74.87 349 74.66 349.42 C72.37 354.29 71.59 358.81 71.09 364.14 C71.01 364.92 70.93 365.7 70.84 366.5 C70.64 368.4 70.46 370.3 70.28 372.2 C72.11 372.05 72.11 372.05 74.28 371.2 C75.4 369.28 76.2 367.63 76.96 365.57 C77.18 365.03 77.39 364.48 77.61 363.91 C80.49 356.28 81.7 347.58 78.71 339.71 C76.96 335.96 74.65 332.9 71.9 329.82 C71.53 329.37 71.15 328.92 70.77 328.46 C68.62 326.04 67.84 325.26 64.49 324.91 C63.76 325.01 63.03 325.1 62.28 325.2 Z M55.28 344.2 C54.84 348.12 55.98 350.13 58.28 353.2 C59.27 353.2 60.26 353.2 61.28 353.2 C60.67 347.71 60.67 347.71 58.84 345.32 C57.28 344.2 57.28 344.2 55.28 344.2 Z" transform="translate(233.72265625,68.80078125)"/>
  <path fill="#a2543c" d="M0 0 C6.54 -0.32 12.67 0.71 19.07 1.94 C19.5 2.02 19.5 2.02 21.63 2.42 C29.39 4 35.89 6.47 41.17 12.53 C42.22 14.96 41.56 16.71 40.89 19.19 C30.83 19.16 22.48 16.97 13.03 13.62 C2.44 9.89 -7.28 8.45 -17.81 13.04 C-20.36 14.32 -22.68 15.74 -24.96 17.46 C-26.11 18.19 -26.11 18.19 -28.11 18.19 C-27.92 15.84 -27.75 13.9 -26.13 12.09 C-24.81 11.03 -23.46 10.07 -22.05 9.13 C-21.55 8.79 -21.06 8.44 -20.55 8.09 C-13.9 3.56 -8.04 0.73 0 0 Z" transform="translate(203.11328125,221.80859375)"/>
  <path fill="#a2543c" d="M0 0 C0.99 0.33 1.98 0.66 3 1 C2.66 1.57 2.32 2.14 1.98 2.73 C-6.04 17.3 -4.6 32.85 -0.29 48.6 C1.62 54.62 1.62 54.62 4 57 C6.47 60.78 7.34 64.13 6.69 68.62 C5.69 72.24 4.46 73.84 1.31 75.88 C-0.11 76.61 -1.55 77.32 -3 78 C-3.58 78.32 -4.17 78.64 -4.77 78.96 C-9.45 81.34 -13.82 81.32 -19 81 C-19.33 79.68 -19.66 78.36 -20 77 C-19.53 77.01 -19.05 77.02 -18.57 77.03 C-12.67 76.76 -9.4 74.41 -5.08 70.69 C-3.12 69.1 -1.3 68.03 1 67 C0.68 63.35 0.17 60.09 -1.38 56.75 C-3.33 52.48 -4.47 48.06 -5.61 43.52 C-6 41.98 -6.43 40.46 -6.86 38.93 C-9.64 28.55 -11.43 16.68 -6.22 6.81 C-4.41 4.13 -2.45 2.11 0 0 Z" transform="translate(280,247)"/>
  <path fill="#a2543c" d="M0 0 C0.33 1.32 0.66 2.64 1 4 C1.51 3.84 2.03 3.69 2.56 3.53 C11.03 1.7 19.84 1.84 27.4 6.29 C31.6 9.06 34.43 12.74 37 17 C36.67 17.66 36.34 18.32 36 19 C32.92 18.91 31.59 18.57 29.33 16.38 C27.84 14.62 26.4 12.84 25 11 C23.68 11.33 22.36 11.66 21 12 C20.94 12.24 20.94 12.24 20.63 13.46 C20.47 14.09 20.3 14.72 20.12 15.38 C19.96 16 19.8 16.63 19.63 17.27 C19 19 19 19 17 21 C12.56 21.68 6.84 21.59 3 19 C2.02 17.48 1.35 16.04 0.74 14.34 C0 13 0 13 -1.58 12.32 C-2.05 12.21 -2.52 12.11 -3 12 C-2.67 12.74 -2.34 13.49 -2 14.25 C-1.07 16.82 -0.91 18.33 -1 21 C-6.58 18.35 -11.82 15.36 -17 12 C-14.85 8.33 -12.71 7.32 -8.92 5.86 C-5.63 4.39 -2.85 2.19 0 0 Z" transform="translate(199,249)"/>
  <path fill="#a2543c" d="M0 0 C6.89 3.17 12.13 7.98 15.12 14.96 C16 17 16 17 17.2 19 C20.15 24.01 20.15 24.01 19.7 26.96 C19.27 28.28 18.84 29.6 18.39 30.91 C17.65 34.84 19.28 38.49 21 42 C21.66 42.66 22.32 43.32 23 44 C23.26 46.03 23.09 47.94 23 50 C19.72 49.69 18.32 49.33 15.98 46.93 C15.37 46.11 14.77 45.28 14.19 44.44 C13.88 44.01 13.56 43.59 13.24 43.15 C12.48 42.11 11.74 41.06 11 40 C12.8 36.09 12.8 36.09 14.62 35.25 C15.08 35.17 15.53 35.08 16 35 C16 33.68 16 32.36 16 31 C12.8 30.91 10.07 31.09 7 32 C6.12 29.99 5.77 29.14 6 27 C7.74 24.11 9.81 21.56 12 19 C10.69 16.12 9.29 13.99 7.06 11.75 C6.56 11.23 6.05 10.71 5.54 10.17 C4 9 4 9 1 9 C0.87 9.7 0.73 10.4 0.6 11.12 C0.42 12.03 0.24 12.94 0.06 13.88 C-0.11 14.78 -0.29 15.68 -0.46 16.62 C-1 19 -1 19 -2 21 C-2.66 21 -3.32 21 -4 21 C-6.2 15.44 -5.29 9.03 -3.73 3.41 C-2.81 1.63 -1.72 0.97 0 0 Z" transform="translate(114,254)"/>
  <path fill="#a2543c" d="M0 0 C3.76 0.42 5.67 2.21 8.31 4.81 C8.68 5.16 9.06 5.5 9.44 5.85 C11.19 7.59 11.99 8.56 12.03 11.06 C10.64 13.67 8.75 14.84 6.25 16.25 C5.82 16.52 5.39 16.79 4.95 17.06 C1.86 18.87 -0.46 19.28 -4 19 C-3.69 18.42 -3.38 17.85 -3.06 17.25 C-2.06 15.13 -1.38 13.31 -1 11 C-1.17 10.67 -1.17 10.67 -2 9 C-3.32 9 -4.64 9 -6 9 C-6.25 9.91 -6.5 10.81 -6.75 11.75 C-7.9 15.05 -8.96 17.05 -12 19 C-16.27 19.18 -20.67 18.91 -24 16 C-24.19 13.88 -24.19 13.88 -24 12 C-24.74 12.5 -25.49 12.99 -26.25 13.5 C-28.59 14.92 -30.22 15.31 -33 15 C-33 12 -33 12 -31.46 10.28 C-22.39 2.54 -15.9 0.88 -3.88 1 C-2.93 1 -1.98 1 -1 1 C-0.67 0.67 -0.34 0.34 0 0 Z" transform="translate(312,255)"/>
  <path fill="#a2543c" d="M0 0 C1.85 1.76 3.56 3.6 5.19 5.56 C5.53 5.98 5.88 6.39 6.23 6.82 C7 8 7 8 7 10 C3.97 9.67 2.38 9.36 0.12 7.25 C-1.3 4.41 -0.91 2.98 0 0 Z" transform="translate(118,294)"/>
  <path fill="#a2543c" d="M0 0 C0.66 0 1.32 0 2 0 C2.66 2.31 3.32 4.62 4 7 C5.69 7.69 5.69 7.69 8 8 C8.36 7.75 8.36 7.75 10.19 6.5 C13.34 4.37 16.33 4.87 19.97 5.41 C22 6 22 6 24.06 8.06 C24.22 8.38 24.22 8.38 25 10 C20.64 12.45 16.91 12.4 12 12.44 C11.6 12.45 11.6 12.45 9.55 12.54 C3.85 12.59 3.85 12.59 1.54 10.99 C-0.19 9.01 -0.95 7.61 -1.17 4.98 C-1.03 4.39 -0.89 3.8 -0.75 3.19 C-0.62 2.58 -0.49 1.98 -0.36 1.36 C-0.3 1.13 -0.3 1.13 0 0 Z" transform="translate(235,310)"/>
  <path fill="#a2543c" d="M0 0 C1.38 0.88 1.38 0.88 3.56 0.62 C6.38 -0.12 6.38 -0.12 8.12 -0.79 C13.56 -2.62 16.69 -1.64 21.83 0.71 C24.35 1.87 26.87 2.77 29.5 3.62 C30.25 3.87 30.99 4.11 31.76 4.36 C32.29 4.53 32.83 4.7 33.38 4.88 C32.95 6.68 32.71 7.63 31.18 8.73 C30.68 8.98 30.19 9.24 29.69 9.5 C26.72 11.33 25.26 13.35 23.44 16.31 C20.38 21.14 17.07 24.92 11.38 26.39 C9.7 26.65 8.07 26.82 6.38 26.88 C6.05 28.19 5.72 29.51 5.38 30.88 C3.1 31.12 0.84 31.35 -1.44 31.56 C-2.08 31.64 -2.72 31.71 -3.38 31.78 C-8.19 32.21 -8.19 32.21 -10.57 30.39 C-10.92 29.89 -11.27 29.39 -11.62 28.88 C-11.15 28.75 -10.68 28.63 -10.19 28.5 C-8.62 27.88 -8.62 27.88 -7.62 25.88 C-8.15 25.87 -8.67 25.87 -9.21 25.87 C-20.54 25.27 -29.55 18.35 -37.08 10.32 C-39.43 8.12 -42.19 6.73 -44.98 5.16 C-45.52 4.73 -46.07 4.31 -46.62 3.88 C-46.62 2.88 -46.62 1.89 -46.62 0.88 C-42.04 0.78 -42.04 0.78 -40.62 0.88 C-40.29 1.2 -39.97 1.54 -39.62 1.88 C-32.29 2.45 -25.9 2 -18.9 -0.39 C-13.24 -2.22 -5.22 -3.61 0 0 Z M-20.94 11.38 C-21.38 11.42 -21.38 11.42 -23.61 11.66 C-23.95 11.69 -23.95 11.69 -25.62 11.88 C-21.1 17.35 -12.01 19.64 -5.16 20.34 C1.74 20.7 8.44 19.67 14.38 15.88 C14.99 14.3 14.99 14.3 15.38 12.88 C14.84 12.89 14.3 12.9 13.74 12.91 C11.27 12.95 8.79 12.97 6.31 13 C5.46 13.02 4.62 13.03 3.74 13.05 C-0.86 13.09 -4.73 12.76 -9.1 11.32 C-12.94 10.2 -17.03 10.96 -20.94 11.38 Z" transform="translate(258.625,343.125)"/>
  <path fill="#a2543c" d="M0 0 C0.28 0.07 0.28 0.07 1.69 0.44 C2.45 0.62 3.21 0.81 4 1 C4.78 1.21 5.57 1.41 6.38 1.62 C9 2 9 2 11.81 1.31 C15.47 0.57 18.04 2.08 21.27 3.7 C23.31 5.23 24.03 6.66 25 9 C22.63 11.37 21.36 11.55 18.12 12.19 C17.26 12.37 16.4 12.55 15.51 12.73 C12.95 13.01 11.38 12.93 9 12 C7.88 10.84 7.88 10.84 7 9.5 C5.55 7.51 5.17 7.06 2.75 6.19 C2.17 6.13 1.59 6.06 1 6 C2.41 9.52 3.66 10.39 7 12 C7.62 13.56 7.62 13.56 8 15 C1.89 15.78 -1.12 14.04 -6.08 10.51 C-8 9 -8 9 -10 7 C-10 5.68 -10 4.36 -10 3 C-7.03 3 -4.06 3 -1 3 C-0.67 2.01 -0.34 1.02 0 0 Z" transform="translate(181,432)"/>
  <path fill="#a2543c" d="M0 0 C3.25 0.43 4.96 1.44 7 4 C7 4.66 7 5.32 7 6 C4.69 6 2.38 6 0 6 C-0.38 4.34 -0.71 2.68 -1 1 C-0.67 0.67 -0.34 0.34 0 0 Z" transform="translate(130,445)"/>
  <path fill="#a2543c" d="M0 0 C1.5 1.13 2.26 2.38 3.26 3.95 C0.18 4.01 -2.9 4.04 -5.99 4.07 C-6.42 4.08 -6.42 4.08 -8.63 4.12 C-9.48 4.13 -10.32 4.14 -11.19 4.14 C-11.97 4.16 -12.74 4.17 -13.54 4.18 C-16 3.92 -17.61 3.17 -19.74 1.95 C-13.76 -2.96 -6.86 -3.55 0 0 Z" transform="translate(257.73828125,453.05078125)"/>
</svg>
