<svg xmlns="http://www.w3.org/2000/svg" width="512" height="512" viewBox="0 0 512 512" aria-hidden="true" focusable="false">
  <rect width="512" height="512" fill="#e4be8b"/>
  <path fill="#a2543c" d="M0 0 C0.46 0.02 0.46 0.02 2.81 0.09 C3.85 0.13 4.88 0.17 5.92 0.21 C7.02 0.25 8.12 0.29 9.21 0.33 C12.25 0.43 15.29 0.54 18.33 0.66 C21.62 0.78 24.92 0.9 28.22 1.01 C35.49 1.27 42.77 1.54 50.04 1.81 C54.61 1.98 59.17 2.14 63.73 2.31 C87.28 3.17 110.82 4.06 134.36 4.95 C135.28 4.98 136.19 5.01 137.13 5.05 C155.36 5.74 173.58 6.43 191.81 7.12 C195.75 7.27 199.69 7.42 203.64 7.57 C204.12 7.59 204.12 7.59 206.6 7.69 C222.12 8.27 237.64 8.86 253.16 9.44 C270.22 10.08 287.29 10.72 304.35 11.37 C313.6 11.73 322.86 12.08 332.12 12.42 C339.95 12.71 347.78 13.01 355.62 13.31 C359.61 13.46 363.6 13.62 367.59 13.76 C371.24 13.89 374.89 14.03 378.54 14.18 C379.86 14.23 381.18 14.28 382.5 14.32 C384.29 14.38 386.09 14.46 387.88 14.53 C388.39 14.55 388.91 14.56 389.43 14.58 C393.65 14.78 397.23 15.64 400.33 18.61 C400.84 19.24 401.35 19.88 401.87 20.54 C404.49 23.69 407.19 26.62 410.12 29.48 C413.53 32.83 416.74 36.29 419.85 39.92 C421.15 41.43 422.47 42.93 423.8 44.41 C424.16 44.81 424.53 45.22 424.91 45.64 C425.62 46.43 426.33 47.22 427.05 48.01 C429.5 50.74 430.77 52.44 430.66 56.14 C430.66 56.46 430.66 56.46 430.62 58.1 C430.6 58.46 430.6 58.46 430.55 60.25 C430.53 61 430.51 61.74 430.49 62.51 C430.42 64.97 430.34 67.44 430.27 69.91 C430.22 71.64 430.17 73.37 430.12 75.11 C429.64 91.32 429.05 107.53 428.42 123.74 C428.26 127.83 428.11 131.92 427.95 136.01 C427.65 143.96 427.34 151.91 427.03 159.86 C426.68 169.15 426.32 178.45 425.96 187.74 C425.33 204.34 424.69 220.93 424.05 237.53 C423.43 253.57 422.81 269.6 422.2 285.64 C422.18 286.14 422.16 286.63 422.14 287.15 C422.08 288.64 422.02 290.14 421.97 291.64 C421.89 293.64 421.81 295.63 421.74 297.62 C421.7 298.6 421.66 299.59 421.62 300.6 C421.03 315.99 420.44 331.38 419.85 346.77 C419.64 352.31 419.42 357.86 419.21 363.4 C418.87 372.18 418.54 380.96 418.2 389.75 C418.04 393.75 417.89 397.75 417.73 401.75 C417.71 402.51 417.68 403.26 417.65 404.03 C417.59 405.51 417.53 406.99 417.48 408.47 C417.34 411.94 417.21 415.41 417.06 418.88 C417 420.18 416.95 421.47 416.9 422.76 C416.87 423.38 416.84 424 416.82 424.63 C416.68 428.05 416.59 431.47 416.55 434.89 C416.53 436.38 416.5 437.87 416.47 439.37 C416.44 441.1 416.42 442.84 416.44 444.57 C416.3 449.96 414.84 452.68 411.11 456.57 C409.33 458.25 407.57 459.91 405.68 461.48 C403.05 463.72 400.54 466.01 398.12 468.48 C395.13 471.51 392.06 474.38 388.8 477.1 C386.62 478.98 386.62 478.98 384.82 480.85 C380.18 485.26 376.6 486.59 370.18 486.49 C367.24 486.39 364.32 486.19 361.39 486 C359.79 485.91 358.18 485.84 356.58 485.76 C353.24 485.61 349.91 485.43 346.58 485.24 C339.67 484.86 332.75 484.66 325.83 484.44 C321.95 484.32 318.07 484.18 314.2 484.04 C312.58 483.98 310.97 483.93 309.35 483.87 C308.53 483.84 307.72 483.81 306.87 483.78 C304.27 483.69 301.67 483.59 299.07 483.5 C265.61 482.31 232.15 481.09 198.69 479.84 C193.88 479.66 189.07 479.48 184.26 479.3 C183.72 479.28 183.19 479.27 182.65 479.24 C165.34 478.6 148.03 477.98 130.72 477.37 C112.84 476.75 94.96 476.1 77.09 475.42 C74.57 475.32 72.04 475.23 69.52 475.13 C69.03 475.11 68.53 475.1 68.02 475.08 C59.56 474.76 51.1 474.47 42.65 474.18 C35.15 473.92 27.65 473.64 20.15 473.35 C15.83 473.17 11.5 473.01 7.18 472.88 C3.22 472.76 -0.74 472.61 -4.69 472.43 C-6.12 472.37 -7.55 472.33 -8.98 472.29 C-17.01 472.09 -22.15 471.71 -27.91 465.67 C-28.4 465.11 -28.88 464.55 -29.38 463.98 C-30.13 463.25 -30.89 462.53 -31.66 461.82 C-35.36 458.11 -38.9 454.31 -42.31 450.33 C-43.98 448.41 -45.71 446.54 -47.45 444.69 C-47.99 444.11 -48.54 443.53 -49.1 442.93 C-50.19 441.77 -51.28 440.61 -52.38 439.46 C-52.88 438.92 -53.38 438.38 -53.9 437.83 C-54.35 437.35 -54.81 436.88 -55.27 436.38 C-57.87 433.08 -57.44 429.53 -57.27 425.52 C-57.25 424.86 -57.22 424.2 -57.2 423.52 C-57.12 421.29 -57.03 419.06 -56.94 416.83 C-56.88 415.22 -56.82 413.61 -56.76 412 C-56.6 407.56 -56.43 403.13 -56.25 398.69 C-56.07 393.91 -55.89 389.13 -55.71 384.35 C-55.36 374.98 -55 365.61 -54.64 356.25 C-54.35 348.63 -54.06 341.02 -53.77 333.4 C-53.73 332.31 -53.68 331.21 -53.64 330.12 C-53.58 328.47 -53.52 326.83 -53.45 325.18 C-52.87 309.85 -52.29 294.53 -51.7 279.2 C-51.67 278.63 -51.65 278.05 -51.63 277.45 C-51.52 274.52 -51.4 271.59 -51.29 268.66 C-51.28 268.37 -51.28 268.37 -51.22 266.9 C-51.18 265.72 -51.13 264.55 -51.09 263.37 C-50.38 245.07 -49.68 226.77 -48.99 208.47 C-48.22 187.91 -47.43 167.36 -46.64 146.8 C-46.56 144.61 -46.47 142.41 -46.39 140.22 C-46.38 139.95 -46.38 139.95 -46.33 138.59 C-46.01 130.44 -45.7 122.29 -45.4 114.14 C-45.05 104.87 -44.69 95.6 -44.33 86.33 C-44.15 81.6 -43.96 76.87 -43.79 72.14 C-43.63 67.81 -43.46 63.48 -43.29 59.15 C-43.23 57.59 -43.17 56.02 -43.11 54.45 C-42.39 34.24 -42.39 34.24 -36.34 28.36 C-35.82 27.89 -35.29 27.41 -34.75 26.91 C-34.21 26.4 -33.66 25.88 -33.1 25.34 C-29.71 22.13 -26.22 19 -22.66 15.97 C-18.7 12.56 -14.93 8.92 -11.12 5.33 C-10.54 4.78 -9.96 4.24 -9.35 3.67 C-9.09 3.42 -9.09 3.42 -7.76 2.17 C-5.14 -0.09 -3.36 -0.12 0 0 Z M-8.82 13.23 C-9.9 14.33 -10.98 15.43 -12.07 16.53 C-12.34 16.81 -12.34 16.81 -13.71 18.25 C-16.46 21.1 -19.39 23.75 -22.32 26.41 C-22.57 26.66 -22.57 26.66 -23.89 27.88 C-24.39 28.34 -24.89 28.81 -25.4 29.29 C-25.62 29.49 -25.62 29.49 -26.71 30.5 C-28.38 31.98 -28.38 31.98 -29.81 32.8 C-32.64 34.63 -34.14 36.06 -35.01 39.37 C-35.33 42.52 -35.46 45.62 -35.53 48.78 C-35.58 50.01 -35.64 51.23 -35.69 52.45 C-35.84 55.81 -35.94 59.17 -36.04 62.53 C-36.16 66.17 -36.31 69.79 -36.46 73.42 C-36.7 79.73 -36.93 86.04 -37.14 92.35 C-37.45 101.56 -37.8 110.77 -38.15 119.98 C-38.72 135.05 -39.26 150.12 -39.79 165.19 C-40.3 179.61 -40.82 194.04 -41.35 208.47 C-41.39 209.35 -41.42 210.22 -41.45 211.13 C-41.65 216.42 -41.85 221.72 -42.04 227.01 C-42.84 248.5 -43.64 269.98 -44.38 291.47 C-44.58 297.21 -44.78 302.95 -44.98 308.7 C-45.04 310.3 -45.09 311.9 -45.15 313.5 C-45.81 332.51 -46.54 351.51 -47.48 370.51 C-47.67 374.19 -47.84 377.88 -48.01 381.56 C-48.06 382.55 -48.1 383.53 -48.15 384.54 C-48.24 386.45 -48.33 388.36 -48.41 390.27 C-48.66 395.51 -48.94 400.74 -49.26 405.97 C-49.44 409.03 -49.58 412.09 -49.7 415.16 C-49.77 416.52 -49.85 417.87 -49.95 419.23 C-50.41 425.52 -50.55 430.25 -46.33 435.26 C-44.81 436.88 -43.22 438.41 -41.56 439.9 C-39.64 441.66 -37.9 443.58 -36.14 445.5 C-34.44 447.3 -32.73 449.09 -31.02 450.89 C-30 451.96 -28.97 453.04 -27.95 454.12 C-27.66 454.43 -27.66 454.43 -26.16 456.01 C-24.38 457.98 -24.38 457.98 -23.58 459.23 C-22.26 461.23 -21.21 462.7 -18.89 463.47 C-17.02 463.7 -15.19 463.77 -13.31 463.8 C-12.57 463.82 -11.84 463.85 -11.08 463.88 C-8.55 463.98 -6.01 464.04 -3.48 464.1 C-1.59 464.16 0.3 464.23 2.19 464.3 C5.94 464.44 9.69 464.56 13.44 464.68 C22.12 464.95 30.79 465.29 39.46 465.64 C42.52 465.76 45.59 465.89 48.65 466.01 C49.43 466.04 50.21 466.07 51.02 466.11 C60.22 466.48 69.42 466.83 78.62 467.19 C79.05 467.2 79.05 467.2 81.25 467.29 C85.74 467.46 90.22 467.63 94.71 467.8 C100.24 468.02 105.78 468.23 111.32 468.45 C131.67 469.23 152.02 470.01 172.37 470.8 C187.37 471.37 202.37 471.95 217.37 472.53 C234.89 473.21 252.41 473.89 269.93 474.56 C279.17 474.92 288.41 475.27 297.65 475.63 C305.49 475.93 313.33 476.24 321.17 476.54 C325.16 476.69 329.15 476.84 333.14 477 C336.8 477.14 340.47 477.28 344.13 477.42 C345.44 477.47 346.75 477.52 348.07 477.57 C351.63 477.71 355.19 477.83 358.75 477.92 C360.07 477.96 361.4 478.01 362.72 478.06 C364.88 478.15 367.05 478.21 369.21 478.26 C369.55 478.28 369.55 478.28 371.23 478.36 C374.66 478.42 376.78 478.2 379.51 476.01 C382.48 473.06 382.48 473.06 383.7 471.4 C385.38 469.22 387.19 467.49 389.31 465.73 C389.63 465.45 389.63 465.45 391.23 464.04 C392.57 462.86 393.93 461.72 395.32 460.6 C397.26 459.03 399.16 457.41 401.06 455.79 C401.69 455.3 402.32 454.81 402.96 454.3 C405.66 451.95 407.4 450.11 408.1 446.52 C408.13 446.05 408.13 446.05 408.26 443.69 C408.29 443.17 408.33 442.65 408.36 442.11 C408.46 440.4 408.54 438.69 408.62 436.98 C408.65 436.41 408.68 435.84 408.71 435.25 C408.93 430.77 409.11 426.28 409.27 421.8 C409.33 420.3 409.39 418.79 409.45 417.29 C409.61 413.19 409.77 409.09 409.92 404.99 C410.09 400.56 410.26 396.12 410.44 391.69 C410.75 383.51 411.07 375.34 411.38 367.16 C411.67 359.61 411.96 352.05 412.25 344.49 C412.29 343.48 412.33 342.46 412.37 341.44 C412.42 339.91 412.48 338.38 412.54 336.85 C413.09 322.62 413.64 308.39 414.18 294.15 C414.2 293.62 414.22 293.08 414.24 292.53 C414.41 288.18 414.58 283.83 414.74 279.48 C415.39 262.53 416.04 245.57 416.7 228.62 C417.43 209.54 418.17 190.46 418.9 171.38 C418.97 169.34 419.05 167.3 419.13 165.26 C419.15 164.76 419.17 164.26 419.19 163.74 C419.48 156.2 419.77 148.65 420.06 141.11 C420.39 132.52 420.72 123.93 421.05 115.33 C421.21 110.96 421.38 106.58 421.55 102.2 C421.9 93.32 422.23 84.43 422.51 75.54 C422.58 73.3 422.66 71.06 422.75 68.83 C422.85 66.26 422.92 63.69 422.99 61.12 C423.02 60.44 423.05 59.76 423.09 59.07 C423.14 54.87 422.13 52.68 419.32 49.55 C417.6 47.92 415.78 46.46 413.9 45.02 C412 43.47 410.5 41.67 408.93 39.79 C406.23 36.63 403.39 33.69 400.4 30.81 C398.62 28.98 398.62 28.98 397.83 27.53 C396.6 25.53 395.53 24.35 393.62 22.98 C389.19 21.94 384.77 21.93 380.24 21.84 C378.86 21.79 377.48 21.74 376.11 21.69 C373.14 21.58 370.17 21.49 367.2 21.41 C362.42 21.29 357.64 21.12 352.86 20.96 C346.13 20.72 339.41 20.51 332.69 20.3 C323.2 20 313.71 19.65 304.23 19.27 C303.48 19.24 302.73 19.21 301.96 19.18 C298.94 19.05 295.91 18.93 292.88 18.81 C284.31 18.46 275.74 18.14 267.16 17.81 C265.56 17.75 263.96 17.68 262.36 17.62 C259.11 17.5 255.86 17.37 252.61 17.25 C247.55 17.06 242.49 16.86 237.42 16.67 C218.78 15.95 200.13 15.23 181.49 14.52 C166.86 13.96 152.23 13.4 137.6 12.83 C122.42 12.25 107.25 11.66 92.07 11.08 C83.61 10.76 75.15 10.43 66.69 10.11 C59.53 9.83 52.38 9.56 45.23 9.28 C41.59 9.15 37.95 9.01 34.32 8.87 C30.98 8.74 27.65 8.61 24.31 8.48 C23.12 8.44 21.92 8.39 20.72 8.34 C17.54 8.22 14.36 8.11 11.18 8.02 C10.11 7.99 9.03 7.96 7.96 7.92 C6.32 7.87 4.68 7.84 3.04 7.81 C2.56 7.8 2.56 7.8 0.14 7.75 C-4.04 8.13 -6.12 10.2 -8.82 13.23 Z" transform="translate(71.37762641906738,8.022956848144531)"/>
  <path fill="#a2543c" d="M0 0 C0.63 0.08 1.26 0.16 1.91 0.24 C4.92 0.69 7.28 1.24 9.86 2.9 C12.81 4.74 14.1 4.47 17.36 3.84 C19.61 3.17 21.56 2.22 23.57 1.03 C35.33 -4.4 54.31 -1.17 66.15 3.03 C78.38 7.71 88.8 14.31 99.12 22.31 C99.5 22.58 99.5 22.58 101.37 23.96 C106.7 27.93 110.93 32.18 115.12 37.31 C115.82 38.12 116.51 38.93 117.21 39.74 C123.52 47.15 128.9 55.11 134.12 63.31 C134.65 64.14 135.18 64.97 135.73 65.82 C137.1 68.27 138.22 70.72 139.29 73.32 C140.23 75.56 141.2 77.77 142.18 79.99 C145.87 88.45 149.49 96.91 152.56 105.62 C152.68 105.96 152.68 105.96 153.27 107.63 C154.62 111.53 155.71 115.45 156.68 119.47 C157.27 121.89 157.95 124.29 158.62 126.69 C159.82 131.02 160.76 135.35 161.61 139.77 C162.24 142.86 163.02 145.9 163.82 148.95 C164.71 152.46 165.47 155.98 166.18 159.52 C169.8 177.44 175.78 193.7 183.34 210.34 C194.02 233.9 201.56 261.28 192.34 286.6 C190.96 290.23 189.55 293.7 187.51 297.01 C186.03 299.47 185.53 301.49 185.12 304.31 C185.43 304.44 185.43 304.44 186.96 305.11 C189.27 306.39 190.26 307.45 191.78 309.58 C192.25 310.22 192.71 310.86 193.19 311.53 C193.66 312.2 194.14 312.87 194.62 313.56 C194.86 313.89 194.86 313.89 196.06 315.55 C196.99 316.85 197.92 318.16 198.83 319.47 C199.65 320.63 200.48 321.78 201.34 322.92 C203.96 326.48 204.74 329.1 204.56 333.5 C204.57 334.02 204.58 334.54 204.58 335.08 C204.54 337.75 204.31 339.09 202.6 341.18 C202.35 341.36 202.35 341.36 201.12 342.31 C196.91 340.81 195.31 338 193.12 334.31 C192.46 334.64 191.81 334.97 191.12 335.31 C191.32 335.65 191.32 335.65 192.29 337.36 C192.78 338.26 193.26 339.16 193.75 340.06 C194.01 340.51 194.26 340.95 194.52 341.41 C195.75 343.72 196.25 344.89 195.5 347.44 C194 349.48 192.46 350.95 190.5 352.56 C187.57 355.04 184.81 357.58 182.12 360.31 C180.79 361.65 179.46 362.98 178.12 364.31 C177.43 365 176.74 365.7 176.02 366.41 C175.33 367.06 174.65 367.71 173.94 368.38 C173.63 368.67 173.63 368.67 172.08 370.16 C170.12 371.31 170.12 371.31 167.97 371.22 C163.84 369.9 159.83 368.35 155.81 366.75 C155.39 366.59 155.39 366.59 153.28 365.75 C151.23 364.94 149.18 364.13 147.12 363.31 C148.85 367.17 148.85 367.17 151.3 368.47 C152.15 368.77 153 369.07 153.88 369.38 C157.79 370.81 161.44 372.37 165.12 374.31 C163.7 376.02 162.27 377.7 160.8 379.36 C159.12 381.31 159.12 381.31 157.95 383.11 C156.18 385.52 154.62 387.05 151.59 387.58 C146.76 387.96 141.95 387.61 137.12 387.31 C135.44 387.23 133.76 387.15 132.08 387.07 C127.76 386.85 123.44 386.6 119.12 386.31 C119.28 386.01 119.28 386.01 120.06 384.5 C120.9 382.77 121.57 381.15 122.12 379.31 C121.14 380.1 120.16 380.89 119.19 381.69 C118.64 382.13 118.1 382.57 117.54 383.02 C116.13 384.31 116.13 384.31 115.12 386.31 C108.86 385.98 102.58 385.65 96.12 385.31 C96.12 382.22 96.18 381.84 98 379.62 C98.35 379.19 98.7 378.75 99.05 378.3 C100.12 377.31 100.12 377.31 102.12 377.31 C102.24 377.04 102.24 377.04 102.85 375.66 C104.44 372.72 106.43 370.31 108.56 367.75 C108.96 367.27 109.35 366.79 109.76 366.29 C111.42 364.28 112.95 362.46 114.97 360.79 C116.12 359.31 116.12 359.31 116.22 356.89 C114.62 353.14 112.05 352.01 108.56 350.12 C107.35 349.45 106.14 348.77 104.93 348.08 C104.66 347.94 104.66 347.94 103.3 347.19 C102.91 346.9 102.53 346.61 102.12 346.31 C102.12 345.65 102.12 344.99 102.12 344.31 C101.4 344.09 100.67 343.86 99.91 343.63 C96.57 342.29 94.73 339.93 92.5 337.19 C91.1 335.46 89.69 333.9 88.12 332.31 C87.13 332.31 86.14 332.31 85.12 332.31 C85.46 334.62 85.78 336.93 86.12 339.31 C83.12 338.31 83.12 338.31 81.94 336.14 C81.04 333.03 80.98 330.31 81.12 327.12 C81.24 322.14 80.74 317.75 79.63 312.88 C78.74 308.35 78.52 303.77 78.24 299.17 C78.12 297.18 77.96 295.19 77.81 293.2 C77.06 283.03 76.29 272.23 79.12 262.31 C76.17 263.59 74.84 264.62 73.12 267.31 C72.47 267.31 71.81 267.31 71.12 267.31 C71.64 262.37 73.11 259.27 75.75 255.12 C80.51 247.28 83.45 238.92 86.43 230.28 C87.26 227.93 88.17 225.62 89.12 223.31 C90.12 223.31 91.11 223.31 92.12 223.31 C93.12 224.52 93.12 224.52 94 226.12 C95.99 229.34 97.65 230.8 101.12 232.31 C102.88 232.19 102.88 232.19 104.12 231.31 C104.24 230.86 104.36 230.41 104.48 229.94 C105.37 227.68 106.77 226.85 108.69 225.38 C115.75 219.34 120.68 211.54 123.81 202.81 C124 202.32 124.18 201.83 124.37 201.32 C124.82 199.91 124.82 199.91 125.12 197.31 C123.83 194.92 122.93 193.67 120.44 192.56 C120 192.48 119.57 192.4 119.12 192.31 C119.26 192.77 119.39 193.24 119.52 193.71 C120.93 200.4 118.47 204.67 115.12 210.31 C114.46 210.31 113.81 210.31 113.12 210.31 C113.23 210.03 113.23 210.03 113.78 208.59 C115.99 202.48 117.1 197.76 115.31 191.44 C114.12 189.31 114.12 189.31 112.5 188.5 C112.05 188.44 111.59 188.38 111.12 188.31 C109.77 192.62 109.77 192.62 110.8 194.62 C111.09 195.03 111.38 195.45 111.69 195.88 C113.12 198.31 113.12 198.31 112.62 200.31 C111.02 202.46 109.3 204.3 107.35 206.14 C106.13 207.31 106.13 207.31 104.56 209.19 C103.12 210.31 103.12 210.31 101 210.12 C99.12 209.31 99.12 209.31 98.12 207.31 C99.53 204.71 101.04 202.43 102.81 200.06 C104.67 197.02 104.29 193.93 104.16 190.47 C104.12 187.91 104.49 185.78 105.12 183.31 C103.78 183.52 103.78 183.52 102.12 184.31 C100.88 186.39 100.88 186.39 99.69 189 C97.8 193.03 95.71 196.68 93.12 200.31 C91.81 199.98 90.49 199.65 89.12 199.31 C89.13 198.93 89.13 198.93 89.16 197 C89.2 193.43 89.17 189.87 89.12 186.31 C89.12 185.68 89.11 185.04 89.11 184.39 C88.93 172.83 86.17 165.27 79.19 156 C69.61 143.25 64.82 127.09 61.69 111.62 C59.36 100.39 54.09 89.4 47.12 80.31 C46.91 80.01 46.91 80.01 45.84 78.46 C41.46 72.66 35.45 69.6 29.12 66.31 C28.74 66.1 28.74 66.1 26.77 65.05 C20.77 62.11 14.68 61.16 8.12 60.31 C7.79 59.32 7.47 58.33 7.12 57.31 C5.54 57.62 3.96 57.94 2.38 58.25 C1.49 58.42 0.61 58.6 -0.3 58.78 C-2.51 59.24 -4.69 59.75 -6.88 60.31 C-11.16 55.76 -11.16 55.76 -11.25 52.19 C-10.87 49.3 -10.42 48.6 -8.88 46.31 C-8.4 44.75 -8.4 44.75 -8.04 43.09 C-6.89 38.82 -4.71 35.5 -2.25 31.88 C-1.83 31.24 -1.41 30.6 -0.98 29.95 C0.05 28.4 1.08 26.85 2.12 25.31 C1.47 24.98 0.81 24.65 0.12 24.31 C-4.1 30.1 -7.92 35.75 -10.88 42.31 C-11.22 43.07 -11.57 43.82 -11.93 44.6 C-13.46 47.95 -14.89 51.2 -15.88 54.75 C-16.88 57.31 -16.88 57.31 -18.75 58.75 C-21.22 59.4 -22.45 58.94 -24.88 58.31 C-25.31 58.61 -25.74 58.92 -26.18 59.23 C-28.4 60.65 -30.33 60.82 -32.94 61.19 C-45.92 63.33 -56.09 69.71 -63.91 80.34 C-73.35 94.07 -79.65 111.28 -83.88 127.31 C-81.04 126.66 -78.45 125.75 -75.75 124.69 C-67.83 122.09 -60.83 124.13 -53.12 126.56 C-52.5 126.75 -51.87 126.95 -51.23 127.14 C-46.47 128.75 -41.64 131.22 -39.06 135.74 C-38.5 137.13 -38.5 137.13 -37.88 139.31 C-39 140.87 -39 140.87 -40.88 142.31 C-45.13 142.03 -48.86 140.67 -52.88 139.31 C-53.89 138.98 -54.9 138.64 -55.91 138.31 C-56.92 137.98 -57.93 137.65 -58.94 137.31 C-59.44 137.15 -59.94 136.98 -60.46 136.81 C-62.85 136.02 -65.15 135.2 -67.47 134.22 C-72.08 132.48 -76.46 132.32 -81.05 134.2 C-83.36 135.74 -84.55 136.85 -85.88 139.31 C-86.28 142.62 -85.76 145.83 -85.24 149.09 C-84.86 151.71 -85.03 153.88 -85.56 156.49 C-86.51 161.96 -86.7 167.61 -87.13 173.14 C-87.22 174.22 -87.3 175.3 -87.39 176.38 C-87.43 176.91 -87.47 177.43 -87.51 177.98 C-87.73 180.72 -87.99 183.45 -88.33 186.18 C-89.66 197.22 -87.63 208.81 -83.62 219.16 C-82.7 221.81 -82.07 224.49 -81.4 227.2 C-77.48 242.83 -71.6 257.75 -62.88 271.31 C-62.15 272.52 -61.43 273.73 -60.71 274.94 C-43.89 302.82 -43.89 302.82 -31.07 306.14 C-14.09 310.02 1.92 307.72 17.3 299.26 C19.36 298.19 21.45 297.42 23.62 296.62 C34.53 292.34 44.69 286.03 53.99 278.94 C58.75 275.31 58.75 275.31 62.12 275.31 C60.98 281.17 57.92 283.7 53.35 287.34 C52.07 288.35 50.82 289.39 49.57 290.44 C44.38 294.78 39.05 298.9 33.62 302.93 C30.09 305.56 26.65 308.27 23.25 311.06 C22.79 311.44 22.33 311.82 21.85 312.21 C20.02 313.72 18.2 315.24 16.42 316.81 C10.81 321.74 4.31 325.29 -2.88 327.31 C-3.53 326.65 -4.19 325.99 -4.88 325.31 C-2.88 324.31 -2.88 324.31 7.12 319.31 C6.47 318.98 5.81 318.65 5.12 318.31 C3.32 319 1.62 319.75 -0.12 320.56 C-4.73 322.59 -9.27 324.1 -14.19 325.19 C-14.75 325.32 -15.31 325.45 -15.89 325.59 C-20.08 326.45 -23.69 326.15 -27.88 325.31 C-27.88 323.99 -27.88 322.67 -27.88 321.31 C-28.87 321.31 -29.85 321.31 -30.88 321.31 C-31.02 332.93 -30.76 344.4 -29.31 355.94 C-28.65 361.38 -28.79 366.84 -28.88 372.31 C-29.87 372.64 -30.85 372.97 -31.88 373.31 C-33.28 367.5 -33.28 362.13 -31.88 356.31 C-33.75 356.88 -33.75 356.88 -35.88 358.31 C-36.83 360.59 -37.38 362.9 -37.88 365.31 C-39.19 365.31 -40.51 365.31 -41.88 365.31 C-41.54 362.01 -41.22 358.71 -40.88 355.31 C-41.87 355.31 -42.86 355.31 -43.88 355.31 C-44.12 356.24 -44.37 357.17 -44.62 358.12 C-45.57 361.42 -46.66 364.65 -47.81 367.88 C-47.97 368.32 -47.97 368.32 -48.78 370.57 C-49.99 373.59 -51.38 376.42 -52.88 379.31 C-61.55 379.41 -70.22 379.48 -78.88 378.94 C-79.46 378.91 -80.04 378.88 -80.63 378.84 C-83.67 378.62 -84.64 378.54 -86.88 376.31 C-87.53 376.97 -88.19 377.63 -88.88 378.31 C-90.97 378.44 -92.91 378.45 -95 378.36 C-95.63 378.34 -96.27 378.32 -96.92 378.3 C-99.05 378.23 -101.18 378.15 -103.31 378.06 C-104.81 378.01 -106.3 377.95 -107.8 377.9 C-111.05 377.78 -114.3 377.65 -117.55 377.52 C-122.23 377.33 -126.91 377.19 -131.59 377.06 C-135.51 376.94 -139.44 376.8 -143.36 376.66 C-145.28 376.6 -147.21 376.54 -149.13 376.49 C-151.85 376.42 -154.56 376.31 -157.27 376.2 C-158.09 376.19 -158.9 376.17 -159.73 376.16 C-165.11 375.9 -165.11 375.9 -167.29 374.22 C-169.04 372.15 -169.86 370.73 -169.94 368 C-167.48 361.78 -163.75 356.83 -158.91 352.25 C-156.65 348.03 -159.04 342.55 -160.13 338.13 C-162.89 326.51 -161.36 316.28 -156.88 305.31 C-156.72 304.94 -156.72 304.94 -155.95 303.05 C-151.91 293.37 -147.57 284.36 -141.55 275.76 C-133.63 264.35 -126.04 250.63 -126.88 236.31 C-127.61 234.14 -127.61 234.14 -128.62 232 C-132.75 222.28 -135.12 211.47 -135.71 200.94 C-135.88 198.31 -135.88 198.31 -136.29 195.56 C-138.56 179.71 -133.68 161.99 -127.88 147.31 C-127.6 146.62 -127.33 145.93 -127.05 145.21 C-124.32 138.33 -121.47 131.51 -118.31 124.81 C-115.23 118.16 -112.94 111.21 -110.56 104.29 C-108.25 97.6 -105.85 91.01 -102.9 84.58 C-102.07 82.75 -101.29 80.91 -100.52 79.06 C-96.04 68.6 -90.55 58.57 -83.6 49.56 C-82.12 47.63 -80.79 45.68 -79.5 43.62 C-78.96 42.86 -78.43 42.1 -77.88 41.31 C-77.22 41.31 -76.56 41.31 -75.88 41.31 C-75.65 40.78 -75.42 40.24 -75.19 39.69 C-72.13 34.16 -67.74 30.14 -62.95 26.09 C-61.64 24.97 -60.36 23.82 -59.11 22.63 C-48.03 12.2 -33.51 5.1 -18.88 1.31 C-18.03 1.08 -17.19 0.85 -16.32 0.61 C-10.64 -0.71 -5.76 -0.73 0 0 Z M85.12 28.31 C85.12 31.31 85.12 31.31 86.45 32.87 C87.06 33.42 87.68 33.97 88.31 34.54 C88.65 34.84 88.65 34.84 90.36 36.4 C91.09 37.05 91.81 37.7 92.56 38.38 C102.16 47.16 102.16 47.16 106.5 52 C106.67 52.19 106.67 52.19 107.56 53.17 C109.52 55.39 110.92 57.61 112.12 60.31 C112.79 60.31 113.44 60.31 114.12 60.31 C111.08 48.13 98.6 36.38 88.68 29.2 C87.12 28.31 87.12 28.31 85.12 28.31 Z M80.12 37.31 C80.78 38.63 81.44 39.95 82.12 41.31 C82.78 41.31 83.44 41.31 84.12 41.31 C83.79 39.99 83.47 38.67 83.12 37.31 C82.13 37.31 81.14 37.31 80.12 37.31 Z M-63 53.31 C-63.54 53.68 -64.08 54.06 -64.63 54.44 C-64.84 54.58 -64.84 54.58 -65.88 55.31 C-65.55 56.3 -65.22 57.29 -64.88 58.31 C-63.44 57.94 -63.44 57.94 -61.88 57.31 C-61.55 56.65 -61.22 55.99 -60.88 55.31 C-59.31 54.69 -59.31 54.69 -57.88 54.31 C-57.88 53.32 -57.88 52.33 -57.88 51.31 C-60.3 51.31 -61.04 51.95 -63 53.31 Z M43.12 56.31 C43.12 57.3 43.12 58.29 43.12 59.31 C44.12 59.31 45.11 59.31 46.12 59.31 C45.79 58.32 45.47 57.33 45.12 56.31 C44.47 56.31 43.81 56.31 43.12 56.31 Z M76.12 61.31 C76.12 64.48 76.39 65.05 78.12 67.5 C78.5 68.03 78.87 68.56 79.25 69.11 C79.54 69.5 79.83 69.9 80.12 70.31 C81.12 69.98 82.11 69.65 83.12 69.31 C82.15 67.98 81.17 66.64 80.19 65.31 C79.91 64.94 79.91 64.94 78.54 63.06 C78.3 62.77 78.3 62.77 77.12 61.31 C76.79 61.31 76.47 61.31 76.12 61.31 Z M86.12 61.31 C86.38 63.19 86.38 63.19 87.12 65.31 C89.19 66.56 89.19 66.56 91.12 67.31 C91.12 64.31 91.12 64.31 89.75 62.62 C88.12 61.31 88.12 61.31 86.12 61.31 Z M49.12 62.31 C49.74 65.81 51.11 67.88 53.25 70.69 C58.21 77.44 62.6 85.3 65.12 93.31 C66.12 92.98 67.11 92.65 68.12 92.31 C66.11 83.48 62.19 75.93 57 68.56 C56.57 67.94 56.14 67.32 55.69 66.68 C55.28 66.11 54.86 65.54 54.43 64.95 C54.24 64.7 54.24 64.7 53.3 63.41 C52.12 62.31 52.12 62.31 49.12 62.31 Z M83.12 70.31 C82.79 71.3 82.47 72.29 82.12 73.31 C83.12 73.31 84.11 73.31 85.12 73.31 C84.79 72.32 84.47 71.33 84.12 70.31 C83.79 70.31 83.47 70.31 83.12 70.31 Z M-79.88 73.31 C-79.88 74.3 -79.88 75.29 -79.88 76.31 C-79.22 76.31 -78.56 76.31 -77.88 76.31 C-77.88 75.32 -77.88 74.33 -77.88 73.31 C-78.53 73.31 -79.19 73.31 -79.88 73.31 Z M-83.88 80.31 C-83.55 80.97 -83.22 81.63 -82.88 82.31 C-82.22 82.31 -81.56 82.31 -80.88 82.31 C-80.88 81.65 -80.88 80.99 -80.88 80.31 C-81.87 80.31 -82.86 80.31 -83.88 80.31 Z M-90.88 102.31 C-90.88 103.3 -90.88 104.29 -90.88 105.31 C-89.88 104.98 -88.89 104.65 -87.88 104.31 C-88.2 103.65 -88.53 102.99 -88.88 102.31 C-89.53 102.31 -90.19 102.31 -90.88 102.31 Z M-93.88 109.31 C-93.88 110.63 -93.88 111.95 -93.88 113.31 C-93.22 112.98 -92.56 112.65 -91.88 112.31 C-92.2 111.32 -92.53 110.33 -92.88 109.31 C-93.2 109.31 -93.53 109.31 -93.88 109.31 Z M-97.88 115.31 C-97.55 116.3 -97.22 117.29 -96.88 118.31 C-96.55 117.32 -96.22 116.33 -95.88 115.31 C-96.53 115.31 -97.19 115.31 -97.88 115.31 Z M73.12 120.31 C73.46 121.96 73.78 123.61 74.12 125.31 C74.78 125.31 75.44 125.31 76.12 125.31 C76.12 123.66 76.12 122.01 76.12 120.31 C75.13 120.31 74.14 120.31 73.12 120.31 Z M77.12 133.31 C76.79 134.3 76.47 135.29 76.12 136.31 C77.12 136.31 78.11 136.31 79.12 136.31 C79.12 135.32 79.12 134.33 79.12 133.31 C78.47 133.31 77.81 133.31 77.12 133.31 Z M119.12 135.31 C118.38 137.06 118.38 137.06 118.12 139.31 C119.94 141.56 119.94 141.56 122.12 143.31 C122.79 143.31 123.44 143.31 124.12 143.31 C123.56 139.39 121.96 137.87 119.12 135.31 Z M143.12 154.31 C143.5 157.09 143.8 158.9 145.56 161.12 C147.12 162.31 147.12 162.31 149.12 162.31 C148.18 156.48 148.18 156.48 146.12 154.31 C145.13 154.31 144.14 154.31 143.12 154.31 Z M-123.88 160.31 C-126.85 163.01 -128.77 165.45 -129 169.56 C-128.96 170.14 -128.92 170.72 -128.88 171.31 C-127.88 171.31 -126.9 171.31 -125.88 171.31 C-122.78 165.08 -122.78 165.08 -123.19 161.88 C-123.41 161.36 -123.64 160.84 -123.88 160.31 Z M105.12 162.31 C105.12 162.97 105.12 163.63 105.12 164.31 C105.79 164.31 106.44 164.31 107.12 164.31 C107.12 163.65 107.12 162.99 107.12 162.31 C106.46 162.31 105.81 162.31 105.12 162.31 Z M108.12 165.31 C108.68 168.91 109.87 170.31 112.69 172.56 C113.33 173.08 113.97 173.6 114.63 174.14 C115.12 174.53 115.62 174.91 116.12 175.31 C116.37 172.82 116.39 171.67 114.88 169.61 C114.34 169.1 113.81 168.59 113.25 168.06 C112.72 167.54 112.18 167.02 111.63 166.48 C110.12 165.31 110.12 165.31 108.12 165.31 Z M154.12 170.31 C153.8 170.97 153.46 171.63 153.12 172.31 C154.57 174.15 156.04 175.98 157.5 177.81 C157.91 178.34 158.32 178.86 158.75 179.4 C159.15 179.9 159.55 180.39 159.96 180.91 C160.33 181.37 160.69 181.83 161.07 182.3 C162.12 183.31 162.12 183.31 164.12 183.31 C163.81 178.12 160.87 174.78 157.12 171.31 C155.43 170.61 155.43 170.61 154.12 170.31 Z M125.12 181.31 C124.96 183.21 124.96 183.21 125.12 185.31 C126.19 186.23 126.19 186.23 127.69 186.94 C132.12 189.58 134.54 193.84 137.31 198.06 C138.49 199.87 139.71 201.66 140.94 203.44 C141.32 204 141.69 204.56 142.08 205.13 C142.43 205.52 142.77 205.91 143.12 206.31 C143.79 206.31 144.44 206.31 145.12 206.31 C144.58 202.26 143.22 199.53 140.81 196.31 C140.49 195.87 140.17 195.44 139.84 194.99 C138.94 193.76 138.03 192.53 137.12 191.31 C136.77 190.79 136.42 190.27 136.05 189.73 C133.28 185.8 129.25 183.66 125.12 181.31 Z M-127.88 192.31 C-131.7 199.97 -129.17 212.93 -127.06 220.88 C-126.9 221.51 -126.73 222.15 -126.56 222.8 C-126.04 224.57 -126.04 224.57 -124.88 227.31 C-123.3 227.98 -123.3 227.98 -121.88 228.31 C-121.66 223.97 -121.85 220 -122.81 215.75 C-123.94 210.65 -124.28 205.61 -124.53 200.4 C-124.56 199.79 -124.6 199.17 -124.63 198.54 C-124.64 198.26 -124.64 198.26 -124.7 196.87 C-124.88 195.24 -125.3 193.85 -125.88 192.31 C-126.53 192.31 -127.19 192.31 -127.88 192.31 Z M177.12 220.31 C177.19 220.79 177.25 221.26 177.31 221.75 C177.39 222.41 177.48 223.07 177.56 223.75 C177.64 224.39 177.72 225.03 177.81 225.68 C177.91 226.55 178.02 227.42 178.12 228.31 C178.21 228.95 178.29 229.58 178.38 230.23 C179.11 236.13 179.28 241.94 179.25 247.88 C179.25 248.77 179.26 249.66 179.26 250.58 C179.25 255.25 179.01 259.73 178.36 264.34 C177.93 267.97 177.93 271.6 177.94 275.25 C177.94 276.04 177.94 276.82 177.94 277.63 C177.99 283.1 178.41 288.09 180.12 293.31 C181.44 293.31 182.76 293.31 184.12 293.31 C193.97 270.18 191.3 249.37 183.12 226.31 C182.21 224.23 181.23 222.3 180.12 220.31 C179.13 220.31 178.14 220.31 177.12 220.31 Z M99.62 237.61 C95.3 242.98 92.23 248.73 89.25 254.94 C88.86 255.75 88.46 256.56 88.06 257.4 C85.01 263.96 82.98 269.53 85.35 276.63 C86.72 279.6 88.66 281.87 90.88 284.25 C91.08 284.5 91.08 284.5 92.14 285.74 C95.19 289.1 95.19 289.1 97.69 289.67 C101.36 289.77 103.67 288.96 106.54 286.86 C110.69 282.81 115.94 276.4 116.29 270.56 C116.3 269.48 116.31 268.4 116.31 267.31 C116.32 267.04 116.32 267.04 116.35 265.66 C116.35 264.21 116.25 262.76 116.12 261.31 C115.46 260.65 114.81 259.99 114.12 259.31 C113.42 257.57 112.78 255.85 112.19 254.06 C110.77 249.97 109.19 246.12 107.12 242.31 C106.13 242.31 105.14 242.31 104.12 242.31 C104.12 240.33 104.12 238.35 104.12 236.31 C101.12 236.31 101.12 236.31 99.62 237.61 Z M-85.88 240.31 C-90.85 248.22 -91.92 258.14 -90.88 267.31 C-89.73 271.24 -87.58 274.27 -84.88 277.31 C-84.4 277.87 -83.92 278.43 -83.42 279 C-81.52 280.61 -80.37 281.16 -77.88 281.31 C-75.95 280.1 -75.95 280.1 -74.12 278.38 C-73.51 277.81 -72.9 277.24 -72.27 276.66 C-71.81 276.22 -71.35 275.77 -70.88 275.31 C-71.2 274.32 -71.53 273.33 -71.88 272.31 C-72.43 272.46 -72.99 272.6 -73.56 272.75 C-75.99 273.34 -78.43 273.83 -80.88 274.31 C-83.38 271.67 -85.19 268.91 -85.88 265.31 C-85.71 260.08 -84.61 254.98 -83.61 249.86 C-82.94 246.3 -82.76 243.76 -83.88 240.31 C-84.53 240.31 -85.19 240.31 -85.88 240.31 Z M-79.88 262.31 C-80.88 263.31 -80.88 263.31 -80.94 265.88 C-80.92 266.68 -80.9 267.48 -80.88 268.31 C-79.56 268.31 -78.24 268.31 -76.88 268.31 C-76.88 266.66 -76.88 265.01 -76.88 263.31 C-77.87 262.98 -78.86 262.65 -79.88 262.31 Z M-136.88 277.31 C-138.27 278.71 -139.39 280 -140.56 281.56 C-140.72 281.76 -140.72 281.76 -141.53 282.76 C-143.52 285.35 -144.27 287.06 -143.88 290.31 C-142.12 290.25 -142.12 290.25 -139.88 289.31 C-137.86 286.6 -135.88 283.75 -135.88 280.31 C-135.22 280.31 -134.56 280.31 -133.88 280.31 C-133.88 279.32 -133.88 278.33 -133.88 277.31 C-134.87 277.31 -135.86 277.31 -136.88 277.31 Z M151.12 288.31 C150.8 288.97 150.46 289.63 150.12 290.31 C150.93 292.19 150.93 292.19 152.21 294.45 C152.67 295.25 153.12 296.06 153.59 296.89 C154.08 297.73 154.56 298.57 155.06 299.44 C155.54 300.29 156.03 301.14 156.52 302.01 C157.72 304.12 158.92 306.22 160.12 308.31 C161.12 308.31 162.11 308.31 163.12 308.31 C160.19 300.82 157.35 293.65 151.12 288.31 Z M-130.88 299.31 C-131.38 300.27 -131.88 301.23 -132.38 302.19 C-132.65 302.72 -132.93 303.25 -133.22 303.8 C-133.88 305.31 -133.88 305.31 -133.88 307.31 C-132.88 307.31 -131.9 307.31 -130.88 307.31 C-129.26 304.49 -128.64 302.56 -128.88 299.31 C-129.53 299.31 -130.19 299.31 -130.88 299.31 Z M-147.88 301.31 C-154.1 310.31 -155.54 320.64 -155.88 331.31 C-155.93 332.1 -155.98 332.89 -156.03 333.7 C-156.25 338.42 -155.31 341.26 -152.88 345.31 C-152.22 345.15 -152.22 345.15 -148.88 344.31 C-148.82 343.44 -148.76 342.56 -148.71 341.66 C-148.5 338.35 -148.29 335.04 -148.08 331.73 C-147.98 330.31 -147.89 328.88 -147.8 327.46 C-147.25 318.74 -146.64 310.02 -145.88 301.31 C-146.53 301.31 -147.19 301.31 -147.88 301.31 Z M183.12 309.31 C183.67 313.11 184.62 315.42 186.96 318.45 C187.53 319.19 188.1 319.93 188.69 320.7 C188.99 321.08 188.99 321.08 190.5 323 C191.09 323.77 191.68 324.54 192.29 325.34 C197.09 331.53 197.09 331.53 200.12 333.31 C199.56 329.29 198.21 326.34 196 323 C195.69 322.53 195.38 322.05 195.07 321.57 C192.16 317.19 189 312.88 185.12 309.31 C184.46 309.31 183.81 309.31 183.12 309.31 Z M128.12 313.31 C127.8 314.3 127.46 315.29 127.12 316.31 C128.12 317.3 129.11 318.29 130.12 319.31 C130.91 317.48 131.2 316.59 130.69 314.62 C130.5 314.19 130.32 313.76 130.12 313.31 C129.46 313.31 128.81 313.31 128.12 313.31 Z M10.12 315.31 C10.12 315.97 10.12 316.63 10.12 317.31 C11.12 317.31 12.11 317.31 13.12 317.31 C13.12 316.65 13.12 315.99 13.12 315.31 C12.13 315.31 11.14 315.31 10.12 315.31 Z M131.12 321.31 C130.8 322.3 130.46 323.29 130.12 324.31 C131.12 324.31 132.11 324.31 133.12 324.31 C133.12 323.32 133.12 322.33 133.12 321.31 C132.46 321.31 131.81 321.31 131.12 321.31 Z M133.12 327.31 C133.12 327.97 133.12 328.63 133.12 329.31 C134.12 329.31 135.11 329.31 136.12 329.31 C136.12 328.65 136.12 327.99 136.12 327.31 C135.13 327.31 134.14 327.31 133.12 327.31 Z M166.12 332.31 C166.12 333.3 166.12 334.29 166.12 335.31 C166.79 335.31 167.44 335.31 168.12 335.31 C168.12 334.32 168.12 333.33 168.12 332.31 C167.46 332.31 166.81 332.31 166.12 332.31 Z M-112.88 338.31 C-112.88 338.97 -112.88 339.63 -112.88 340.31 C-112.22 340.31 -111.56 340.31 -110.88 340.31 C-110.88 339.65 -110.88 338.99 -110.88 338.31 C-111.53 338.31 -112.19 338.31 -112.88 338.31 Z M169.12 338.31 C169.85 341.82 171.18 344.84 172.69 348.06 C172.8 348.32 172.8 348.32 173.4 349.6 C173.97 350.84 174.55 352.08 175.12 353.31 C175.79 353.31 176.44 353.31 177.12 353.31 C177.88 351.75 177.88 351.75 178.12 349.31 C177.01 346.84 175.61 344.58 174.12 342.31 C173.46 342.31 172.81 342.31 172.12 342.31 C171.8 340.99 171.46 339.67 171.12 338.31 C170.46 338.31 169.81 338.31 169.12 338.31 Z M-115.88 343.31 C-115.88 344.3 -115.88 345.29 -115.88 346.31 C-115.22 346.31 -114.56 346.31 -113.88 346.31 C-114.2 345.32 -114.53 344.33 -114.88 343.31 C-115.2 343.31 -115.53 343.31 -115.88 343.31 Z M-92.44 349.69 C-93.88 351.31 -93.88 351.31 -93.88 353.31 C-92.56 352.98 -91.24 352.65 -89.88 352.31 C-89.88 350.99 -89.88 349.67 -89.88 348.31 C-90.88 348.31 -90.88 348.31 -92.44 349.69 Z M124.12 351.31 C124.12 352.3 124.12 353.29 124.12 354.31 C124.56 354.49 125 354.68 125.45 354.86 C128.49 356.15 131.43 357.46 134.31 359.06 C136.47 360.18 136.97 360.33 139.5 360 C139.77 359.89 139.77 359.89 141.12 359.31 C137.6 355.08 129.8 348.48 124.12 351.31 Z M-153.88 353.31 C-157.26 357.04 -160.41 360.89 -163.31 365 C-163.57 365.36 -163.57 365.36 -164.87 367.2 C-165.88 369.31 -165.88 369.31 -165.54 371.58 C-165.32 372.15 -165.1 372.72 -164.88 373.31 C-163.89 372.89 -162.91 372.45 -161.94 372 C-161.66 371.88 -161.66 371.88 -160.29 371.26 C-158.55 370.1 -158.45 369.26 -157.88 367.31 C-157.26 367.04 -156.64 366.78 -156 366.5 C-152.97 364.81 -151.94 362.55 -150.88 359.31 C-150.69 356.44 -150.69 356.44 -150.88 354.31 C-151.87 353.98 -152.86 353.65 -153.88 353.31 Z M178.12 355.31 C177.96 355.97 177.96 355.97 177.12 359.31 C178.12 359.31 179.11 359.31 180.12 359.31 C179.8 357.99 179.46 356.67 179.12 355.31 C178.8 355.31 178.46 355.31 178.12 355.31 Z M130.12 368.31 C128.79 369.77 127.45 371.22 126.12 372.69 C125.74 373.1 125.36 373.51 124.97 373.94 C122.12 377.09 122.12 377.09 122.12 379.31 C125.37 378.75 127.06 377.9 129.12 375.31 C129.12 374.65 129.12 373.99 129.12 373.31 C129.79 373.31 130.44 373.31 131.12 373.31 C131.45 371.99 131.79 370.67 132.12 369.31 C131.46 368.98 130.81 368.65 130.12 368.31 Z M-82.88 370.31 C-83.53 370.97 -84.19 371.63 -84.88 372.31 C-84.88 373.3 -84.88 374.29 -84.88 375.31 C-81.06 373.71 -81.06 373.71 -80.12 371.69 C-80.04 371.23 -79.96 370.78 -79.88 370.31 C-80.87 370.31 -81.86 370.31 -82.88 370.31 Z" transform="translate(256.875,77.6875)"/>
  <path fill="#a2543c" d="M0 0 C0.46 0.27 0.92 0.55 1.4 0.83 C11.89 7.09 11.89 7.09 14 10 C13.57 12.1 13.57 12.1 13 14 C12.77 13.88 12.77 13.88 11.58 13.28 C9.45 12.21 7.32 11.13 5.19 10.06 C4.45 9.69 3.71 9.32 2.95 8.93 C2.24 8.57 1.53 8.22 0.79 7.85 C0.14 7.52 -0.52 7.19 -1.19 6.85 C-9.21 3.09 -17.66 5.08 -25.84 7.45 C-28.35 8.17 -30.86 8.85 -33.38 9.52 C-33.87 9.66 -34.36 9.79 -34.86 9.92 C-50.12 14 -50.12 14 -53.83 12.03 C-54.21 11.69 -54.6 11.35 -55 11 C-55 8.55 -54.97 7.2 -54 5 C-47.54 -0.69 -39.73 -2.27 -31.44 -3.12 C-30.65 -3.21 -29.85 -3.29 -29.04 -3.37 C-8.99 -5.33 -8.99 -5.33 0 0 Z" transform="translate(309,207)"/>
  <path fill="#a2543c" d="M0 0 C2.64 0.36 3.76 0.73 5.56 2.75 C7.1 5.16 7.67 6.95 8.19 9.75 C8.35 10.55 8.5 11.35 8.67 12.17 C9.48 19.08 8.85 24.75 6.75 31.38 C6.52 32.11 6.3 32.85 6.06 33.61 C2.01 46.58 2.01 46.58 0 50 C-1.62 50.75 -1.62 50.75 -3 51 C-2.76 48.98 -2.51 46.96 -2.25 44.94 C-2.17 44.31 -2.09 43.68 -2 43.02 C-1.43 39.04 -0.55 35.34 0.67 31.51 C4.08 20.72 2.26 10.87 0 0 Z" transform="translate(219,225)"/>
  <path fill="#a2543c" d="M0 0 C0.75 0.12 1.49 0.24 2.26 0.37 C6.37 1.11 9.14 1.88 12.31 4.75 C13.18 5.27 14.05 5.77 14.94 6.25 C18.31 8.38 18.31 8.38 19.31 10.75 C19.44 13.44 19.44 13.44 19.31 15.75 C16.21 15.75 14.96 15.21 12.31 13.75 C11.84 14.41 11.36 15.07 10.88 15.75 C8.71 17.91 6.89 18.13 3.88 18.25 C0.34 18.06 -2.22 17.64 -4.82 15.17 C-6.56 12.31 -6.6 9.03 -6.69 5.75 C-8.34 6.41 -9.99 7.07 -11.69 7.75 C-11.83 14.18 -11.83 14.18 -10.69 16.75 C-15.12 15.85 -18.42 13.86 -21.69 10.75 C-22.62 7.94 -22.62 7.94 -22.69 5.75 C-21.68 4.75 -20.66 3.78 -19.62 2.81 C-19.06 2.27 -18.49 1.72 -17.9 1.16 C-12.34 -2.38 -6.18 -1.16 0 0 Z" transform="translate(198.6875,229.25)"/>
  <path fill="#a2543c" d="M0 0 C0.57 0.04 1.15 0.08 1.74 0.12 C2.37 0.17 2.99 0.21 3.63 0.26 C4.29 0.31 4.94 0.36 5.62 0.41 C6.27 0.46 6.93 0.5 7.6 0.55 C12.49 0.91 12.49 0.91 13.62 2.04 C15.11 2.31 16.61 2.56 18.12 2.79 C23.63 3.82 27.91 6.06 32.62 9.04 C32.3 10.45 32.3 10.45 31.62 12.04 C30.31 12.84 30.31 12.84 28.68 13.42 C28.09 13.64 27.51 13.86 26.91 14.08 C26.3 14.29 25.68 14.51 25.05 14.73 C24.44 14.95 23.82 15.17 23.19 15.41 C21.67 15.96 20.14 16.5 18.62 17.04 C18.45 16.21 18.45 16.21 17.62 12.04 C15.74 12.29 15.74 12.29 13.62 13.04 C12.55 14.98 12.55 14.98 11.62 17.04 C9.9 18.54 8.99 19.03 6.68 19.08 C6.34 19.04 6.34 19.04 4.62 18.79 C3.94 18.7 3.26 18.61 2.55 18.52 C0.44 17.99 -0.79 17.53 -2.38 16.04 C-2.89 14.09 -2.89 14.09 -3.07 11.91 C-3.1 11.55 -3.1 11.55 -3.27 9.72 C-3.31 9.16 -3.34 8.61 -3.38 8.04 C-8.64 8.68 -10.86 11.04 -14.52 14.64 C-15.13 15.1 -15.75 15.56 -16.38 16.04 C-18.12 15.75 -18.12 15.75 -19.38 15.04 C-18.82 11.53 -17.75 10.12 -15.01 7.91 C-14.4 7.42 -13.8 6.92 -13.17 6.4 C-10.59 4.43 -8.39 2.91 -5.26 1.98 C-3.36 1.41 -1.82 0.05 0 0 Z" transform="translate(282.3828125,229.96240234375)"/>
  <path fill="#a2543c" d="M0 0 C0.66 0.33 1.32 0.66 2 1 C2 3.64 2 6.28 2 9 C2.73 9.09 3.46 9.19 4.21 9.28 C7.44 10.11 9.08 11.37 11.62 13.5 C16.28 17.38 16.28 17.38 19 18 C18.67 19.32 18.34 20.64 18 22 C10.53 20.22 2.82 17.67 -2.23 11.5 C-3.48 9.07 -3.47 6.63 -3 4 C-1.5 1.62 -1.5 1.62 0 0 Z" transform="translate(212,282)"/>
  <path fill="#a2543c" d="M0 0 C0.99 0.66 1.98 1.32 3 2 C2.19 4.44 2.19 4.44 1 7 C-0.62 7.81 -0.62 7.81 -2 8 C-2.69 6.81 -2.69 6.81 -3 5 C-2.17 3.18 -1.13 1.67 0 0 Z" transform="translate(257,290)"/>
  <path fill="#a2543c" d="M0 0 C2.72 1.86 4.54 4.07 6 7 C5.28 6.92 4.55 6.83 3.8 6.75 C-1.32 6.21 -5.94 5.77 -11 7 C-11.62 5.69 -11.62 5.69 -12 4 C-11.14 2.14 -10.55 1.23 -8.63 0.44 C-5.71 -0.35 -2.99 -0.6 0 0 Z" transform="translate(247,292)"/>
  <path fill="#a2543c" d="M0 0 C1.65 0.33 3.3 0.66 5 1 C5 2.65 5 4.3 5 6 C3.35 6.33 1.7 6.66 0 7 C-0.66 5.68 -1.32 4.36 -2 3 C-1.34 2.01 -0.68 1.02 0 0 Z" transform="translate(357,297)"/>
  <path fill="#a2543c" d="M0 0 C0.7 0.37 1.4 0.74 2.12 1.12 C4.74 2.34 6.27 1.75 9 1 C9.56 0.78 10.12 0.57 10.7 0.34 C14.13 -0.17 16.96 0.87 20.25 1.81 C26.03 3.36 31.75 4.56 37.69 5.31 C38.35 5.4 39 5.49 39.68 5.58 C43.36 6.01 46.37 5.96 50 5 C50.16 5.66 50.16 5.66 51 9 C50.57 9.22 50.13 9.44 49.69 9.67 C47.7 10.69 45.73 11.72 43.75 12.75 C43.07 13.1 42.39 13.45 41.68 13.8 C37.79 15.85 35.01 17.82 32 21 C29.96 22.23 29.96 22.23 27.94 23.19 C27.6 23.35 27.6 23.35 25.9 24.17 C22.68 25.58 20.36 26.12 16.81 26.06 C16.45 26.06 16.45 26.06 14.64 26.04 C14.37 26.03 14.37 26.03 13 26 C13.16 26.82 13.16 26.82 14 31 C9.71 30.67 5.42 30.34 1 30 C0.67 28.68 0.34 27.36 0 26 C-1.67 25.13 -1.67 25.13 -3.75 24.56 C-7.86 23.19 -10.51 21.59 -13 18 C-13.8 16.21 -14.49 14.41 -15.18 12.58 C-16.55 9.95 -18.35 9.22 -21 8 C-21.66 7.67 -22.32 7.34 -23 7 C-22.67 5.68 -22.34 4.36 -22 3 C-21.59 3.05 -21.18 3.09 -20.75 3.14 C-16.83 3.39 -14.43 2.89 -11 0.94 C-7.02 -1.24 -4.29 -1.41 0 0 Z M-9 12 C-9.33 12.66 -9.66 13.32 -10 14 C-9.46 14.78 -8.93 15.57 -8.38 16.38 C-8.07 16.82 -7.77 17.26 -7.46 17.71 C-2.65 21.96 5.85 22.19 11.98 22.16 C19.45 21.56 27.43 18.55 34 15 C34 14.34 34 13.68 34 13 C28.39 12.04 23.43 12.05 17.81 12.88 C17.13 12.97 16.44 13.06 15.74 13.15 C12.88 13.54 10.13 13.97 7.33 14.66 C4.45 15.08 2.67 14.51 -0.06 13.56 C-3.19 12.49 -5.68 11.81 -9 12 Z" transform="translate(226,317)"/>
  <path fill="#a2543c" d="M0 0 C1.32 0 2.64 0 4 0 C4.11 0.55 4.22 1.09 4.33 1.65 C5.21 5.81 6.22 9.58 7.88 13.5 C9.19 17.25 8.92 19.19 7.31 22.81 C6.57 24.22 5.8 25.62 5 27 C4.33 28.33 3.66 29.66 3 31 C6.61 29.1 8.5 27.96 10 24 C11.32 24.33 12.64 24.66 14 25 C13.11 31.55 9.01 35.58 3.98 39.62 C2.35 40.8 0.7 41.93 -1 43 C-5.65 39.44 -10.17 35.77 -12 30 C-11.25 27.56 -11.25 27.56 -10 26 C-9.34 26 -8.68 26 -8 26 C-8.02 25.03 -8.04 24.06 -8.06 23.06 C-8.1 21.41 -8.1 21.41 -8 20 C-7.67 19.67 -7.34 19.34 -7 19 C-6.76 17.01 -6.62 15.01 -6.48 13.01 C-5.89 10.52 -4.82 9.75 -3 8 C-2.05 5.96 -2.05 5.96 -1.31 3.81 C-1.06 3.1 -0.81 2.38 -0.55 1.64 C-0.37 1.1 -0.19 0.56 0 0 Z M0 11 C0 12.32 0 13.64 0 15 C0.99 15 1.98 15 3 15 C3 13.68 3 12.36 3 11 C2.01 11 1.02 11 0 11 Z M-6 27 C-6.17 27.66 -6.17 27.66 -7 31 C-6.34 31.33 -6.34 31.33 -3 33 C-3 31.02 -3 29.04 -3 27 C-3.99 27 -4.98 27 -6 27 Z" transform="translate(357,320)"/>
</svg>
